<svg xmlns="http://www.w3.org/2000/svg" width="73.228" height="39.013" viewBox="0 0 73.228 39.013">
  <g id="Group_2" data-name="Group 2" transform="translate(-511.856 -2219.624)">
    <path id="Path_14" data-name="Path 14" d="M149.667,16.333l.046.023Z" transform="translate(398.78 2213.457)" fill="#cfcfcf"/>
    <path id="Subtraction_3" data-name="Subtraction 3" d="M4.344,17.957h0a7.039,7.039,0,0,1-1.078-.071,1.339,1.339,0,0,1-.712-.489c-.042-.044-.082-.087-.123-.128-.241-.241-.479-.5-.709-.744-.31-.333-.63-.677-.963-.991C.7,15.48.625,15.421.546,15.359.313,15.177.024,14.952,0,14.7c-.021-.239.259-.585.485-.862.083-.1.154-.19.2-.261q.251-.38.5-.764c.479-.733.973-1.491,1.5-2.2C5.459,6.82,7.881,3.252,9.881,0h.139c.773,1.137,1.565,2.29,2.33,3.4,1.718,2.5,3.494,5.087,5.18,7.668.416.637.855,1.275,1.279,1.892q.283.412.565.824c.037.054.09.119.145.188.2.242.44.543.367.787a1.487,1.487,0,0,1-.552.619,3.32,3.32,0,0,0-.261.219,9.512,9.512,0,0,0-.657.754,4.7,4.7,0,0,1-1.642,1.5,1.5,1.5,0,0,1-.519.072c-.131,0-.265-.008-.395-.016s-.236-.014-.341-.014H6.4c-.325,0-.67.015-1,.03S4.693,17.957,4.344,17.957Zm1.08-8.348a25.959,25.959,0,0,1-1.589,2.409c-.251.351-.51.714-.753,1.072-.056.082-.134.181-.225.3-.278.351-.625.788-.614,1.1.01.272.343.56.61.791.078.067.151.13.2.184s.114.119.174.184a2.243,2.243,0,0,0,.592.51,2.054,2.054,0,0,0,.9.151c.277,0,.562-.022.838-.044.233-.018.453-.035.634-.035.094,0,.205.008.323.016.137.01.279.019.418.019a1.125,1.125,0,0,0,.561-.107c.331-.19,1.331-1.311,1.275-1.739a2.523,2.523,0,0,0-.627-1.037c-.106-.128-.206-.25-.279-.355-.225-.325-.441-.665-.669-1.025a13.462,13.462,0,0,0-1.77-2.387Zm8.983,0c-.477.773-1.021,1.528-1.548,2.258-.273.378-.553.768-.821,1.154-.066.094-.161.209-.261.33a2.316,2.316,0,0,0-.627,1.062c-.012.305.373.681.654.955.086.084.168.164.226.23a2.111,2.111,0,0,0,1.738.657c.178,0,.356-.007.545-.015s.386-.016.583-.016c.089,0,.187.006.291.012s.23.013.346.013a1.22,1.22,0,0,0,.547-.1,2.4,2.4,0,0,0,.64-.557c.067-.074.131-.143.195-.207s.123-.115.2-.178a1.592,1.592,0,0,0,.54-.657c.073-.289-.292-.752-.559-1.09-.072-.091-.134-.17-.177-.233-.262-.38-.521-.8-.771-1.2a14.678,14.678,0,0,0-1.734-2.42ZM9.881,3.064,7.49,6.615,6.6,8.078,7.464,9.47l2.417,3.482h.139L12.438,9.47,13.3,8.078l-.847-1.393L10.021,3.064Z" transform="translate(537.893 2230.138)" fill="#0af"/>
    <path id="Path_16" data-name="Path 16" d="M148,18l.07.07Z" transform="translate(400.331 2211.906)" fill="#d5d5d5"/>
    <path id="Path_17" data-name="Path 17" d="M152,19l.07.07Z" transform="translate(396.609 2210.976)" fill="#cfcfcf"/>
    <path id="Path_18" data-name="Path 18" d="M146,21l.07.07Z" transform="translate(402.192 2209.115)" fill="#d5d5d5"/>
    <path id="Path_19" data-name="Path 19" d="M154,22l.07.07Z" transform="translate(394.749 2208.185)" fill="#cfcfcf"/>
    <path id="Path_20" data-name="Path 20" d="M142.139,24l.07.07-.07-.07m-.139.209.07.07Z" transform="translate(405.913 2206.324)" fill="#d5d5d5"/>
    <path id="Path_21" data-name="Path 21" d="M164,37l.07.07Z" transform="translate(385.445 2194.229)" fill="#dbdbdb"/>
    <path id="Path_22" data-name="Path 22" d="M167,41l.07.07Z" transform="translate(382.654 2190.508)" fill="#cfcfcf"/>
    <path id="Path_23" data-name="Path 23" d="M131,43l.07.07Z" transform="translate(416.147 2188.647)" fill="#d5d5d5"/>
    <path id="Path_24" data-name="Path 24" d="M130,44l.07.07L130,44m2.716,0,.07.07Z" transform="translate(417.078 2187.717)" fill="#cfcfcf"/>
    <path id="Path_25" data-name="Path 25" d="M129,46l.07.07Z" transform="translate(418.008 2185.856)" fill="#d5d5d5"/>
    <path id="Path_26" data-name="Path 26" d="M171,47l.07.07Z" transform="translate(378.932 2184.926)" fill="#cfcfcf"/>
    <path id="Path_27" data-name="Path 27" d="M127,49l.07.07Z" transform="translate(419.869 2183.065)" fill="#d5d5d5"/>
    <path id="Path_28" data-name="Path 28" d="M173,50l.07.07Z" transform="translate(377.072 2182.135)" fill="#cfcfcf"/>
    <path id="Path_29" data-name="Path 29" d="M123.139,52l.07.07-.07-.07m-.139.209.07.07Z" transform="translate(423.59 2180.274)" fill="#d5d5d5"/>
    <path id="Path_31" data-name="Path 31" d="M151,62l.07.07Z" transform="translate(397.54 2170.97)" fill="#cfcfcf"/>
    <path id="Path_32" data-name="Path 32" d="M183,65l.07.07Z" transform="translate(367.768 2168.179)" fill="#dbdbdb"/>
    <path id="Path_33" data-name="Path 33" d="M154,66l.07.07Z" transform="translate(394.749 2167.249)" fill="#d5d5d5"/>
    <path id="Path_34" data-name="Path 34" d="M186,69l.07.07Z" transform="translate(364.977 2164.458)" fill="#cfcfcf"/>
    <path id="Path_35" data-name="Path 35" d="M112,71l.07.07Z" transform="translate(433.824 2162.597)" fill="#d5d5d5"/>
    <path id="Path_36" data-name="Path 36" d="M111,72l.07.07L111,72m5.362,0,.07.07Z" transform="translate(434.755 2161.667)" fill="#cfcfcf"/>
    <path id="Path_37" data-name="Path 37" d="M110,74l.07.07Z" transform="translate(435.685 2159.806)" fill="#d5d5d5"/>
    <path id="Path_38" data-name="Path 38" d="M190,75l.07.07Z" transform="translate(361.255 2158.875)" fill="#cfcfcf"/>
    <path id="Path_39" data-name="Path 39" d="M108,77l.07.07Z" transform="translate(437.546 2157.015)" fill="#d5d5d5"/>
    <path id="Path_40" data-name="Path 40" d="M192,78l.07.07Z" transform="translate(359.395 2156.084)" fill="#cfcfcf"/>
    <path id="Path_41" data-name="Path 41" d="M106,80l.07.07Z" transform="translate(439.406 2154.223)" fill="#d5d5d5"/>
    <path id="Path_42" data-name="Path 42" d="M164,81l.07.07Z" transform="translate(385.445 2153.293)" fill="#cfcfcf"/>
    <path id="Path_43" data-name="Path 43" d="M104,83l.07.07Z" transform="translate(441.267 2151.432)" fill="#d5d5d5"/>
    <path id="Path_44" data-name="Path 44" d="M133.437,84l.07.07-.07-.07M131,84.209l.07.07-.07-.07m2.576,0,.07.07-.07-.07m.139.209.07.07Z" transform="translate(416.147 2150.502)" fill="#cfcfcf"/>
    <path id="Path_45" data-name="Path 45" d="M202,93l.07.07Z" transform="translate(350.091 2142.129)" fill="#dbdbdb"/>
    <path id="Path_46" data-name="Path 46" d="M173,94l.07.07Z" transform="translate(377.072 2141.198)" fill="#d5d5d5"/>
    <path id="Path_47" data-name="Path 47" d="M205,97l.07.07Z" transform="translate(347.3 2138.407)" fill="#cfcfcf"/>
    <path id="Path_48" data-name="Path 48" d="M93,99l.07.07Z" transform="translate(451.501 2136.546)" fill="#d5d5d5"/>
    <path id="Path_49" data-name="Path 49" d="M92,100l.07.07L92,100m8.008,0,.07.07Z" transform="translate(452.431 2135.616)" fill="#cfcfcf"/>
    <path id="Path_50" data-name="Path 50" d="M91,102l.07.07Z" transform="translate(453.362 2133.755)" fill="#d5d5d5"/>
    <path id="Path_51" data-name="Path 51" d="M209,103l.07.07Z" transform="translate(343.578 2132.825)" fill="#cfcfcf"/>
    <path id="Path_52" data-name="Path 52" d="M89,105l.07.07Z" transform="translate(455.223 2130.964)" fill="#d5d5d5"/>
    <path id="Path_53" data-name="Path 53" d="M211,106l.07.07Z" transform="translate(341.718 2130.034)" fill="#cfcfcf"/>
    <path id="Path_54" data-name="Path 54" d="M87,108l.07.07Z" transform="translate(457.083 2128.173)" fill="#d5d5d5"/>
    <path id="Path_55" data-name="Path 55" d="M183,109l.07.07Z" transform="translate(367.768 2127.243)" fill="#cfcfcf"/>
    <path id="Path_56" data-name="Path 56" d="M85,111l.07.07Z" transform="translate(458.944 2125.382)" fill="#d5d5d5"/>
    <path id="Path_57" data-name="Path 57" d="M117.083,112l.07.07-.07-.07m-5.083.209.07.07-.07-.07m5.222,0,.07.07-.07-.07m.139.209.07.07Z" transform="translate(433.824 2124.452)" fill="#cfcfcf"/>
    <path id="Path_58" data-name="Path 58" d="M221,121l.07.07Z" transform="translate(332.414 2116.078)" fill="#dbdbdb"/>
    <path id="Path_59" data-name="Path 59" d="M192,122l.07.07Z" transform="translate(359.395 2115.148)" fill="#d5d5d5"/>
    <path id="Path_60" data-name="Path 60" d="M224,125l.07.07Z" transform="translate(329.623 2112.357)" fill="#cfcfcf"/>
    <path id="Path_61" data-name="Path 61" d="M74,127l.07.07Z" transform="translate(469.178 2110.496)" fill="#d5d5d5"/>
    <path id="Path_62" data-name="Path 62" d="M73,128l.07.07L73,128m10.654,0,.07.07Z" transform="translate(470.108 2109.566)" fill="#cfcfcf"/>
    <path id="Path_63" data-name="Path 63" d="M72,130l.07.07Z" transform="translate(471.039 2107.705)" fill="#d5d5d5"/>
    <path id="Path_64" data-name="Path 64" d="M228,131l.07.07Z" transform="translate(325.902 2106.775)" fill="#cfcfcf"/>
    <path id="Path_65" data-name="Path 65" d="M70,133l.07.07L70,133m8.983,0,.07.07Z" transform="translate(472.9 2104.914)" fill="#d5d5d5"/>
    <path id="Path_66" data-name="Path 66" d="M101,134l.07.07L101,134m8.983,0,.07.07Z" transform="translate(444.058 2103.984)" fill="#cfcfcf"/>
    <path id="Path_67" data-name="Path 67" d="M66.139,136l.07.07-.07-.07m-.139.209.07.07-.07-.07m2.646,0,.07.07Z" transform="translate(476.621 2102.123)" fill="#d5d5d5"/>
    <path id="Path_68" data-name="Path 68" d="M106,141l.07.07L106,141m6.058,0,.07.07Z" transform="translate(439.406 2097.471)" fill="#cfcfcf"/>
    <path id="Path_69" data-name="Path 69" d="M192,143l.07.07Z" transform="translate(359.395 2095.61)" fill="#d5d5d5"/>
    <path id="Path_70" data-name="Path 70" d="M108,144l.07.07Z" transform="translate(437.546 2094.68)" fill="#cfcfcf"/>
    <path id="Path_71" data-name="Path 71" d="M111,149l.07.07Z" transform="translate(434.755 2090.028)" fill="#d5d5d5"/>
    <path id="Path_72" data-name="Path 72" d="M240,149l.07.07Z" transform="translate(314.737 2090.028)" fill="#dbdbdb"/>
    <path id="Path_73" data-name="Path 73" d="M113,151l.07.07L113,151m5.083,0,.07.07Z" transform="translate(432.894 2088.167)" fill="#cfcfcf"/>
    <path id="Path_74" data-name="Path 74" d="M185,153l.07.07Z" transform="translate(365.907 2086.307)" fill="#d5d5d5"/>
    <path id="Path_75" data-name="Path 75" d="M123.913,153l.07.07-.07-.07m-8.913.07.07.07Z" transform="translate(431.033 2086.307)" fill="#cfcfcf"/>
    <path id="Path_76" data-name="Path 76" d="M55,155l.07.07Z" transform="translate(486.855 2084.446)" fill="#d5d5d5"/>
    <path id="Path_78" data-name="Path 78" d="M54,156l.07.07L54,156m2.228,0,.07.07-.07-.07m8.843,0,.07.07-.07-.07m2.228,0,.07.07Z" transform="translate(487.785 2083.516)" fill="#cfcfcf"/>
    <path id="Path_79" data-name="Path 79" d="M53,158l.07.07L53,158m2.437,0,.07.07-.07-.07m2.089.07.07.07Z" transform="translate(488.716 2081.655)" fill="#d5d5d5"/>
    <path id="Path_80" data-name="Path 80" d="M247,159l.07.07Z" transform="translate(308.225 2080.724)" fill="#cfcfcf"/>
    <path id="Path_81" data-name="Path 81" d="M51,161l.07.07Z" transform="translate(490.577 2078.864)" fill="#d5d5d5"/>
    <path id="Path_82" data-name="Path 82" d="M93.019,161l.07.07-.07-.07m4.108,0,.07.07-.07-.07m4.874.07.07.07-.07-.07m-11,.07.07.07Z" transform="translate(453.362 2078.864)" fill="#cfcfcf"/>
    <path id="Path_83" data-name="Path 83" d="M57.983,163l.07.07-.07-.07M49,163.07l.07.07Z" transform="translate(492.437 2077.003)" fill="#d5d5d5"/>
    <path id="Path_84" data-name="Path 84" d="M95.019,164l.07.07-.07-.07m6.894.07.07.07-.07-.07m-8.913.07.07.07-.07-.07m7.868,0,.07.07Z" transform="translate(451.501 2076.073)" fill="#cfcfcf"/>
    <path id="Path_85" data-name="Path 85" d="M47,167l.07.07L47,167m3.342.07.07.07Z" transform="translate(494.298 2073.281)" fill="#d5d5d5"/>
    <path id="Path_86" data-name="Path 86" d="M223,168l.07.07Z" transform="translate(330.553 2072.351)" fill="#cfcfcf"/>
    <path id="Path_87" data-name="Path 87" d="M125,169l.07.07Z" transform="translate(421.729 2071.421)" fill="#d5d5d5"/>
    <path id="Path_88" data-name="Path 88" d="M74,171l.07.07L74,171m3.691,0,.07.07-.07-.07m3.133,0,.07.07-.07-.07m3.691,0,.07.07-.07-.07m-8.843.139.07.07Z" transform="translate(469.178 2069.56)" fill="#cfcfcf"/>
    <path id="Path_89" data-name="Path 89" d="M171,173l.07.07Z" transform="translate(378.932 2067.699)" fill="#d5d5d5"/>
    <path id="Path_90" data-name="Path 90" d="M102.019,174l.07.07-.07-.07m6.824,0,.07.07-.07-.07m-8.843.139.07.07-.07-.07m6.894,0,.07.07Z" transform="translate(444.989 2066.769)" fill="#cfcfcf"/>
    <path id="Path_91" data-name="Path 91" d="M259,177l.07.07Z" transform="translate(297.06 2063.978)" fill="#dbdbdb"/>
    <path id="Path_92" data-name="Path 92" d="M102,178l.07.07L102,178m8.913,0,.07.07-.07-.07m-6.824.07.07.07Z" transform="translate(443.128 2063.047)" fill="#d5d5d5"/>
    <path id="Path_93" data-name="Path 93" d="M134,181l.07.07L134,181m2.159,0,.07.07-.07-.07m6.754,0,.07.07Z" transform="translate(413.356 2060.256)" fill="#cfcfcf"/>
    <path id="Path_94" data-name="Path 94" d="M36,183l.07.07Z" transform="translate(504.532 2058.396)" fill="#d5d5d5"/>
    <path id="Path_95" data-name="Path 95" d="M105,183l.07.07Z" transform="translate(440.337 2058.396)" fill="#cfcfcf"/>
    <path id="Path_96" data-name="Path 96" d="M164,183l.07.07Z" transform="translate(385.445 2058.396)" fill="#d5d5d5"/>
    <path id="Path_97" data-name="Path 97" d="M35,184l.07.07L35,184m7.033,0,.07.07-.07-.07m8.913,0,.07.07Z" transform="translate(505.462 2057.465)" fill="#cfcfcf"/>
    <path id="Path_98" data-name="Path 98" d="M34,186l.07.07Z" transform="translate(506.393 2055.604)" fill="#d5d5d5"/>
    <path id="Path_99" data-name="Path 99" d="M107,186l.07.07L107,186m5.919,0,.07.07-.07-.07m5.153.07.07.07Z" transform="translate(438.476 2055.604)" fill="#cfcfcf"/>
    <path id="Path_100" data-name="Path 100" d="M37.362,188l.07.07-.07-.07M32,188.07l.07.07-.07-.07m7.451,0,.07.07Z" transform="translate(508.254 2053.744)" fill="#d5d5d5"/>
    <path id="Path_101" data-name="Path 101" d="M149.843,190l.07.07-.07-.07m-8.843.07.07.07-.07-.07m1.184,0,.07.07Z" transform="translate(406.844 2051.883)" fill="#cfcfcf"/>
    <path id="Path_102" data-name="Path 102" d="M30,192l.07.07Z" transform="translate(510.114 2050.022)" fill="#d5d5d5"/>
    <path id="Path_103" data-name="Path 103" d="M112,193l.07.07Z" transform="translate(433.824 2049.092)" fill="#cfcfcf"/>
    <path id="Path_104" data-name="Path 104" d="M157,193l.07.07Z" transform="translate(391.958 2049.092)" fill="#d5d5d5"/>
    <path id="Path_105" data-name="Path 105" d="M149.754,193l.07.07-.07-.07m-6.754.07.07.07Z" transform="translate(404.983 2049.092)" fill="#cfcfcf"/>
    <path id="Path_106" data-name="Path 106" d="M28,195l.07.07Z" transform="translate(511.975 2047.231)" fill="#d5d5d5"/>
    <path id="Path_107" data-name="Path 107" d="M114,196l.07.07L114,196m4.944,0,.07.07-.07-.07m3.969,0,.07.07Z" transform="translate(431.963 2046.301)" fill="#cfcfcf"/>
    <path id="Path_108" data-name="Path 108" d="M116,198l.07.07Z" transform="translate(430.103 2044.44)" fill="#d5d5d5"/>
    <path id="Path_109" data-name="Path 109" d="M55,199l.07.07Z" transform="translate(486.855 2043.51)" fill="#cfcfcf"/>
    <path id="Path_110" data-name="Path 110" d="M146,199l.07.07Z" transform="translate(402.192 2043.51)" fill="#d5d5d5"/>
    <path id="Path_111" data-name="Path 111" d="M127.7,199l.07.07-.07-.07m-6.685.139.07.07-.07-.07m.209,0,.07.07-.07-.07m6.615.07.07.07-.07-.07m-8.843.07.07.07Z" transform="translate(427.312 2043.51)" fill="#cfcfcf"/>
    <path id="Path_112" data-name="Path 112" d="M150,203l.07.07Z" transform="translate(398.47 2039.788)" fill="#d5d5d5"/>
    <path id="Path_113" data-name="Path 113" d="M278,205l.07.07Z" transform="translate(279.383 2037.927)" fill="#dbdbdb"/>
    <path id="Path_114" data-name="Path 114" d="M121,206l.07.07L121,206m3.969,0,.07.07Z" transform="translate(425.451 2036.997)" fill="#cfcfcf"/>
    <path id="Path_115" data-name="Path 115" d="M131.774,206l.07.07-.07-.07m-8.774.139.07.07Z" transform="translate(423.59 2036.997)" fill="#d5d5d5"/>
    <path id="Path_116" data-name="Path 116" d="M281,209l.07.07Z" transform="translate(276.592 2034.206)" fill="#cfcfcf"/>
    <path id="Path_117" data-name="Path 117" d="M17,211l.07.07Z" transform="translate(522.209 2032.345)" fill="#d5d5d5"/>
    <path id="Path_118" data-name="Path 118" d="M16,212l.07.07L16,212m18.592,0,.07.07-.07-.07m-10.932.07.07.07Z" transform="translate(523.139 2031.415)" fill="#cfcfcf"/>
    <path id="Path_119" data-name="Path 119" d="M15,214l.07.07Z" transform="translate(524.07 2029.554)" fill="#d5d5d5"/>
    <path id="Path_120" data-name="Path 120" d="M138.932,215l.07.07-.07-.07M128,215.07l.07.07-.07-.07m2.994,0,.07.07Z" transform="translate(418.938 2028.624)" fill="#cfcfcf"/>
    <path id="Path_121" data-name="Path 121" d="M13,217l.07.07L13,217m8.147.07.07.07Z" transform="translate(525.93 2026.763)" fill="#d5d5d5"/>
    <path id="Path_122" data-name="Path 122" d="M287,218l.07.07Z" transform="translate(271.01 2025.833)" fill="#cfcfcf"/>
    <path id="Path_123" data-name="Path 123" d="M11,220l.07.07Z" transform="translate(527.791 2023.972)" fill="#d5d5d5"/>
    <path id="Path_124" data-name="Path 124" d="M259,221l.07.07Z" transform="translate(297.06 2023.042)" fill="#cfcfcf"/>
    <path id="Path_125" data-name="Path 125" d="M9,223l.07.07Z" transform="translate(529.652 2021.181)" fill="#d5d5d5"/>
    <path id="Path_126" data-name="Path 126" d="M133,223l.07.07L133,223m8.913.07.07.07-.07-.07m-6.545.139.07.07-.07-.07m.487.557.07.07Z" transform="translate(414.286 2021.181)" fill="#cfcfcf"/>
    <path id="Path_127" data-name="Path 127" d="M15,237l.07.07L15,237m18.731,0,.07.07-.07-.07m-18.662.07.07.07-.07-.07m18.592,0,.07.07-.07-.07m-18.522.07.07.07-.07-.07m18.453,0,.07.07-.07-.07m-18.383.07.07.07-.07-.07m7.242,0,.07.07Z" transform="translate(524.07 2008.156)" fill="#d5d5d5"/>
    <path id="Path_128" data-name="Path 128" d="M179,240l.07.07Z" transform="translate(371.49 2005.365)" fill="#dbdbdb"/>
    <path id="Path_129" data-name="Path 129" d="M37.244,240l.07.07-.07-.07M19,240.07l.07.07-.07-.07m18.174,0,.07.07-.07-.07m-18.1.07.07.07Z" transform="translate(520.348 2005.365)" fill="#d5d5d5"/>
    <path id="Path_130" data-name="Path 130" d="M120,242l.07.07L120,242m4.248,0,.07.07Z" transform="translate(426.381 2003.504)" fill="#cfcfcf"/>
    <path id="Path_131" data-name="Path 131" d="M38.965,242l.07.07-.07-.07M21,242.07l.07.07-.07-.07m17.9,0,.07.07-.07-.07m-17.826.07.07.07-.07-.07m17.756,0,.07.07-.07-.07m-17.687.07.07.07-.07-.07m17.617,0,.07.07Z" transform="translate(518.488 2003.504)" fill="#d5d5d5"/>
    <path id="Path_132" data-name="Path 132" d="M116,247l.07.07Z" transform="translate(430.103 1998.852)" fill="#cfcfcf"/>
    <path id="Path_133" data-name="Path 133" d="M186,248l.07.07Z" transform="translate(364.977 1997.922)" fill="#dbdbdb"/>
    <path id="Path_135" data-name="Path 135" d="M1.328-8.1v-3.223h1.4a1.812,1.812,0,0,1,.746.14,1.092,1.092,0,0,1,.483.4,1.125,1.125,0,0,1,.17.626,1.116,1.116,0,0,1-.17.622,1.092,1.092,0,0,1-.483.4,1.812,1.812,0,0,1-.746.14H1.742l.332-.336V-8.1Zm.746-1.142L1.742-9.6h.939A.772.772,0,0,0,3.2-9.746a.513.513,0,0,0,.17-.41.518.518,0,0,0-.17-.414.772.772,0,0,0-.516-.147H1.742l.332-.355ZM4.652-8.1v-3.223h1.4a1.812,1.812,0,0,1,.746.14,1.092,1.092,0,0,1,.483.4,1.125,1.125,0,0,1,.17.626,1.1,1.1,0,0,1-.17.619,1.083,1.083,0,0,1-.483.4A1.839,1.839,0,0,1,6.048-9H5.067L5.4-9.327V-8.1ZM6.7-8.1,5.9-9.272h.8L7.507-8.1ZM5.4-9.245l-.332-.35h.939a.763.763,0,0,0,.516-.15.52.52,0,0,0,.17-.412.518.518,0,0,0-.17-.414.772.772,0,0,0-.516-.147H5.067l.332-.355ZM9.593-8.052a1.966,1.966,0,0,1-.7-.122,1.643,1.643,0,0,1-.562-.348,1.535,1.535,0,0,1-.364-.532,1.773,1.773,0,0,1-.131-.661,1.638,1.638,0,0,1,.131-.661,1.629,1.629,0,0,1,.368-.53,1.659,1.659,0,0,1,.559-.352,1.851,1.851,0,0,1,.7-.12,1.874,1.874,0,0,1,.707.12,1.683,1.683,0,0,1,.557.35,1.6,1.6,0,0,1,.368.527,1.6,1.6,0,0,1,.127.665,1.617,1.617,0,0,1-.127.665,1.566,1.566,0,0,1-.368.53,1.7,1.7,0,0,1-.557.348A1.874,1.874,0,0,1,9.593-8.052Zm0-.626A1.147,1.147,0,0,0,10-8.757a.925.925,0,0,0,.32-.212A.985.985,0,0,0,10.53-9.3a1.177,1.177,0,0,0,.081-.419,1.177,1.177,0,0,0-.081-.419.985.985,0,0,0-.212-.327.953.953,0,0,0-.32-.214,1.053,1.053,0,0,0-.405-.076,1.123,1.123,0,0,0-.4.078.925.925,0,0,0-.32.212.991.991,0,0,0-.212.325,1.17,1.17,0,0,0-.081.421,1.184,1.184,0,0,0,.081.417.98.98,0,0,0,.212.329.959.959,0,0,0,.318.214A1.023,1.023,0,0,0,9.593-8.678Zm3.191.576-1.391-3.223H12.2l1.216,2.855H12.94l1.234-2.855h.741L13.52-8.1Zm2.4,0v-3.223h.746V-8.1Zm1.51,0v-3.223h1.464a2.043,2.043,0,0,1,.925.2,1.529,1.529,0,0,1,.626.559,1.54,1.54,0,0,1,.221.852,1.543,1.543,0,0,1-.221.85,1.524,1.524,0,0,1-.626.562,2.043,2.043,0,0,1-.925.2Zm.746-.612h.681a1.153,1.153,0,0,0,.559-.12.9.9,0,0,0,.368-.35,1.068,1.068,0,0,0,.136-.53,1.064,1.064,0,0,0-.136-.532.9.9,0,0,0-.368-.348,1.153,1.153,0,0,0-.559-.12l-.681,0Zm3.739-1.308,1.556,0v.576l-1.552,0ZM21.228-8.7h1.763l0,.6H20.5l0-3.223h2.431l-.009.6H21.237Zm2.357.6v-3.223H25.05a2.043,2.043,0,0,1,.925.2,1.529,1.529,0,0,1,.626.559,1.54,1.54,0,0,1,.221.852,1.543,1.543,0,0,1-.221.85,1.524,1.524,0,0,1-.626.562,2.043,2.043,0,0,1-.925.2Zm.746-.612h.681a1.153,1.153,0,0,0,.559-.12.9.9,0,0,0,.368-.35,1.068,1.068,0,0,0,.136-.53,1.064,1.064,0,0,0-.136-.532.9.9,0,0,0-.368-.348,1.153,1.153,0,0,0-.559-.12l-.681,0Zm4.36.612v-3.223h1.575a1.511,1.511,0,0,1,.914.23.724.724,0,0,1,.306.608.774.774,0,0,1-.124.44.814.814,0,0,1-.341.288,1.16,1.16,0,0,1-.5.1l.087-.189a1.377,1.377,0,0,1,.539.1.81.81,0,0,1,.366.292.825.825,0,0,1,.131.474.749.749,0,0,1-.327.647,1.655,1.655,0,0,1-.962.233Zm.741-.562h.87a.832.832,0,0,0,.44-.094.33.33,0,0,0,.15-.3.337.337,0,0,0-.15-.3.8.8,0,0,0-.44-.1h-.925V-10h.8a.765.765,0,0,0,.417-.094.32.32,0,0,0,.145-.288.315.315,0,0,0-.145-.283.765.765,0,0,0-.417-.094h-.741Zm3.513.562V-9.42l.17.451L31.7-11.326h.792l1.087,1.81h-.456l1.091-1.81h.732L33.527-8.968l.166-.451V-8.1Z" transform="translate(530.808 2231)" fill="#0af"/>
    <path id="Path_134" data-name="Path 134" d="M1.247-8.114-.144-11.337H.662L1.877-8.482H1.4l1.234-2.855h.741l-1.4,3.223Zm3.9.055a1.46,1.46,0,0,1-1.073-.382,1.466,1.466,0,0,1-.387-1.091v-1.8h.746v1.777a.956.956,0,0,0,.189.663.688.688,0,0,0,.53.2.688.688,0,0,0,.53-.2.956.956,0,0,0,.189-.663v-1.777h.737v1.8a1.466,1.466,0,0,1-.387,1.091A1.46,1.46,0,0,1,5.146-8.058Zm2.2-.055,0-3.223h.741l0,2.615H9.7l0,.608Zm3.444-.737-.041-.861,1.542-1.625h.829l-1.391,1.5-.414.442Zm-.668.737v-3.223h.741v3.223Zm2.206,0-1.146-1.4.488-.53L13.2-8.114Zm3.564.055a2.63,2.63,0,0,1-.741-.1,1.734,1.734,0,0,1-.571-.269l.253-.562a1.85,1.85,0,0,0,.49.242,1.8,1.8,0,0,0,.573.094,1.194,1.194,0,0,0,.357-.044.418.418,0,0,0,.2-.122A.274.274,0,0,0,16.519-9a.243.243,0,0,0-.1-.2.832.832,0,0,0-.267-.124q-.166-.048-.366-.092t-.4-.108a1.694,1.694,0,0,1-.366-.166.815.815,0,0,1-.269-.267.787.787,0,0,1-.1-.424.9.9,0,0,1,.15-.5,1.024,1.024,0,0,1,.451-.364A1.847,1.847,0,0,1,16-11.392a2.534,2.534,0,0,1,.6.071,1.725,1.725,0,0,1,.52.214l-.23.566a1.959,1.959,0,0,0-.451-.191A1.66,1.66,0,0,0,16-10.793a1.045,1.045,0,0,0-.355.051.418.418,0,0,0-.2.131.3.3,0,0,0-.06.186.238.238,0,0,0,.1.2.8.8,0,0,0,.267.122q.166.046.366.092t.4.106a1.549,1.549,0,0,1,.366.161.815.815,0,0,1,.269.267.778.778,0,0,1,.1.419.871.871,0,0,1-.152.5,1.061,1.061,0,0,1-.454.364A1.833,1.833,0,0,1,15.893-8.058Zm3.421,0a1.929,1.929,0,0,1-.693-.122,1.628,1.628,0,0,1-.555-.348,1.613,1.613,0,0,1-.366-.53,1.666,1.666,0,0,1-.131-.668,1.666,1.666,0,0,1,.131-.668,1.6,1.6,0,0,1,.368-.53,1.658,1.658,0,0,1,.555-.348,1.924,1.924,0,0,1,.7-.122,1.9,1.9,0,0,1,.757.145,1.476,1.476,0,0,1,.569.426l-.479.442a1.121,1.121,0,0,0-.368-.283,1.034,1.034,0,0,0-.442-.094,1.131,1.131,0,0,0-.414.074.939.939,0,0,0-.327.212.967.967,0,0,0-.214.327,1.113,1.113,0,0,0-.076.419,1.113,1.113,0,0,0,.076.419.967.967,0,0,0,.214.327.939.939,0,0,0,.327.212,1.131,1.131,0,0,0,.414.074,1.034,1.034,0,0,0,.442-.094,1.1,1.1,0,0,0,.368-.288l.479.442a1.5,1.5,0,0,1-.569.428A1.891,1.891,0,0,1,19.314-8.058Zm1.833-.055v-3.223h1.4a1.812,1.812,0,0,1,.746.14,1.092,1.092,0,0,1,.483.4,1.125,1.125,0,0,1,.17.626,1.1,1.1,0,0,1-.17.619,1.083,1.083,0,0,1-.483.4,1.839,1.839,0,0,1-.746.138h-.981l.332-.327v1.225Zm2.049,0-.806-1.17h.8L24-8.114Zm-1.3-1.142-.332-.35H22.5a.763.763,0,0,0,.516-.15.52.52,0,0,0,.17-.412.518.518,0,0,0-.17-.414.772.772,0,0,0-.516-.147h-.939l.332-.355Zm2.638,1.142v-3.223h.746v3.223Zm1.51,0v-3.223h1.4a1.812,1.812,0,0,1,.746.14,1.092,1.092,0,0,1,.483.4,1.125,1.125,0,0,1,.17.626,1.116,1.116,0,0,1-.17.622,1.092,1.092,0,0,1-.483.4,1.812,1.812,0,0,1-.746.14h-.981l.332-.336v1.225Zm.746-1.142-.332-.355h.939a.772.772,0,0,0,.516-.147.513.513,0,0,0,.17-.41.518.518,0,0,0-.17-.414.772.772,0,0,0-.516-.147h-.939l.332-.355ZM29.95-8.114l0-2.615H28.914v-.608h2.8l0,.608H30.687l0,2.615Zm2.173,0v-3.223h.746v3.223Zm1.51,0v-3.223h.617l1.9,2.321-.295,0,0-2.325h.737v3.223h-.612l-1.906-2.321.3,0v2.325Zm5.277.055a1.956,1.956,0,0,1-.7-.122,1.653,1.653,0,0,1-.557-.348,1.6,1.6,0,0,1-.368-.53,1.666,1.666,0,0,1-.131-.668,1.666,1.666,0,0,1,.131-.668,1.581,1.581,0,0,1,.371-.53,1.673,1.673,0,0,1,.562-.348,1.988,1.988,0,0,1,.709-.122,1.99,1.99,0,0,1,.771.143,1.527,1.527,0,0,1,.578.414l-.479.442a1.169,1.169,0,0,0-.382-.274,1.123,1.123,0,0,0-.451-.09,1.194,1.194,0,0,0-.428.074.954.954,0,0,0-.334.212.951.951,0,0,0-.216.327,1.113,1.113,0,0,0-.076.419,1.1,1.1,0,0,0,.076.414.975.975,0,0,0,.216.329.942.942,0,0,0,.332.214,1.162,1.162,0,0,0,.421.074,1.326,1.326,0,0,0,.431-.071,1.242,1.242,0,0,0,.407-.242l.424.539a1.943,1.943,0,0,1-.61.3A2.367,2.367,0,0,1,38.911-8.058Zm.622-.506V-9.776h.681v1.308Zm2.675.451v-3.223h1.464a2.043,2.043,0,0,1,.925.2,1.529,1.529,0,0,1,.626.559,1.54,1.54,0,0,1,.221.852,1.543,1.543,0,0,1-.221.85,1.524,1.524,0,0,1-.626.562,2.043,2.043,0,0,1-.925.2Zm.746-.612h.681a1.153,1.153,0,0,0,.559-.12.9.9,0,0,0,.368-.35,1.068,1.068,0,0,0,.136-.53,1.064,1.064,0,0,0-.136-.532.9.9,0,0,0-.368-.348,1.153,1.153,0,0,0-.559-.12l-.681,0Zm3.739-1.308,1.556,0v.576l-1.552,0Zm.051,1.321h1.763l0,.6H46.011l0-3.223h2.431l-.009.6H46.752Zm2.362.6,0-3.223h.741l0,2.615h1.612l0,.608Zm3.458-1.92,1.556,0v.576l-1.552,0Zm.051,1.321h1.763l0,.6H51.881l0-3.223h2.431l-.009.6H52.622Zm3.914.654a1.956,1.956,0,0,1-.7-.122,1.653,1.653,0,0,1-.557-.348,1.6,1.6,0,0,1-.368-.53,1.666,1.666,0,0,1-.131-.668,1.666,1.666,0,0,1,.131-.668,1.581,1.581,0,0,1,.371-.53,1.673,1.673,0,0,1,.562-.348,1.988,1.988,0,0,1,.709-.122,1.99,1.99,0,0,1,.771.143,1.527,1.527,0,0,1,.578.414l-.479.442a1.169,1.169,0,0,0-.382-.274,1.123,1.123,0,0,0-.451-.09,1.194,1.194,0,0,0-.428.074.954.954,0,0,0-.334.212.951.951,0,0,0-.216.327,1.113,1.113,0,0,0-.076.419,1.1,1.1,0,0,0,.076.414.975.975,0,0,0,.216.329.942.942,0,0,0,.332.214,1.162,1.162,0,0,0,.421.074A1.326,1.326,0,0,0,57-8.765a1.242,1.242,0,0,0,.407-.242l.424.539a1.943,1.943,0,0,1-.61.3A2.367,2.367,0,0,1,56.527-8.058Zm.622-.506V-9.776h.681v1.308Zm.949.451,1.437-3.223h.737l1.441,3.223h-.783L59.75-10.959h.295L58.861-8.114Zm.718-.691.2-.566h1.658l.2.566Zm3.743.691,0-2.615H61.523v-.608h2.8l0,.608H63.3l0,2.615Zm2.173,0v-3.223h.746v3.223Zm3.067.051a1.966,1.966,0,0,1-.7-.122,1.643,1.643,0,0,1-.562-.348,1.535,1.535,0,0,1-.364-.532,1.773,1.773,0,0,1-.131-.661,1.638,1.638,0,0,1,.131-.661,1.629,1.629,0,0,1,.368-.53,1.659,1.659,0,0,1,.559-.352,1.851,1.851,0,0,1,.7-.12,1.874,1.874,0,0,1,.707.12,1.683,1.683,0,0,1,.557.35,1.6,1.6,0,0,1,.368.527,1.6,1.6,0,0,1,.127.665,1.617,1.617,0,0,1-.127.665,1.566,1.566,0,0,1-.368.53,1.7,1.7,0,0,1-.557.348A1.874,1.874,0,0,1,67.8-8.063Zm0-.626a1.147,1.147,0,0,0,.405-.078.925.925,0,0,0,.32-.212.985.985,0,0,0,.212-.327,1.177,1.177,0,0,0,.081-.419,1.177,1.177,0,0,0-.081-.419.985.985,0,0,0-.212-.327.953.953,0,0,0-.32-.214,1.053,1.053,0,0,0-.405-.076,1.123,1.123,0,0,0-.4.078.925.925,0,0,0-.32.212.991.991,0,0,0-.212.325,1.17,1.17,0,0,0-.081.421,1.184,1.184,0,0,0,.081.417.98.98,0,0,0,.212.329.959.959,0,0,0,.318.214A1.023,1.023,0,0,0,67.8-8.689Zm2.33.576v-3.223h.617l1.9,2.321-.295,0,0-2.325h.737v3.223h-.612l-1.906-2.321.3,0v2.325Z" transform="translate(512 2266.695)" fill="#0af"/>
  </g>
</svg>
