<svg xmlns="http://www.w3.org/2000/svg" width="128.629" height="68.528" viewBox="0 0 128.629 68.528">
  <g id="Group_2" data-name="Group 2" transform="translate(-511.856 -2219.624)">
    <path id="Path_14" data-name="Path 14" d="M149.667,16.333l.086.043Z" transform="translate(426.46 2221.148)" fill="#cfcfcf"/>
    <path id="Subtraction_3" data-name="Subtraction 3" d="M8.04,33.234h0A13.028,13.028,0,0,1,6.045,33.1a2.479,2.479,0,0,1-1.318-.9c-.077-.081-.152-.161-.228-.236-.447-.447-.886-.919-1.312-1.377-.573-.616-1.166-1.253-1.783-1.835-.107-.1-.247-.209-.395-.325C.58,28.089.044,27.672,0,27.2c-.039-.443.48-1.082.9-1.6.153-.189.286-.352.372-.483q.465-.7.927-1.414c.886-1.357,1.8-2.759,2.767-4.078C10.1,12.622,14.586,6.019,18.288,0h.258c1.431,2.1,2.9,4.238,4.313,6.3,3.179,4.628,6.466,9.414,9.587,14.191.77,1.179,1.582,2.36,2.367,3.5q.524.762,1.045,1.524c.069.1.166.22.268.347.363.448.814,1.005.679,1.457a2.751,2.751,0,0,1-1.022,1.146,6.143,6.143,0,0,0-.483.406,17.606,17.606,0,0,0-1.215,1.4,8.692,8.692,0,0,1-3.039,2.773,2.773,2.773,0,0,1-.96.134c-.243,0-.491-.015-.73-.029s-.436-.026-.63-.026H11.845c-.6,0-1.24.028-1.857.056C9.347,33.2,8.685,33.234,8.04,33.234Zm2-15.45A48.044,48.044,0,0,1,7.1,22.243c-.464.649-.943,1.321-1.394,1.984-.1.151-.248.335-.417.547-.515.65-1.156,1.459-1.136,2.031.018.5.634,1.036,1.13,1.464.144.125.279.241.378.34s.212.22.323.34a4.151,4.151,0,0,0,1.095.944,3.8,3.8,0,0,0,1.659.28c.512,0,1.04-.041,1.55-.081.431-.034.839-.065,1.173-.065.175,0,.38.014.6.03.254.018.515.036.774.036a2.082,2.082,0,0,0,1.039-.2c.612-.352,2.462-2.426,2.36-3.218a4.67,4.67,0,0,0-1.16-1.919c-.2-.238-.381-.462-.516-.658-.416-.6-.815-1.23-1.239-1.9a24.915,24.915,0,0,0-3.275-4.418Zm16.625,0c-.884,1.431-1.89,2.828-2.864,4.178-.5.7-1.024,1.421-1.52,2.136-.121.175-.3.386-.483.61a4.286,4.286,0,0,0-1.161,1.966c-.022.565.69,1.259,1.21,1.767.16.156.311.3.418.425a3.907,3.907,0,0,0,3.216,1.216c.329,0,.659-.013,1.008-.028s.714-.029,1.079-.029c.165,0,.346.01.538.022.209.012.426.025.64.025a2.258,2.258,0,0,0,1.013-.179,4.45,4.45,0,0,0,1.185-1.031c.124-.136.242-.265.361-.383.1-.1.228-.212.362-.329a2.947,2.947,0,0,0,1-1.216c.135-.534-.541-1.392-1.035-2.018-.133-.169-.248-.315-.328-.43-.485-.7-.964-1.476-1.428-2.223a27.165,27.165,0,0,0-3.209-4.478ZM18.288,5.67l-4.426,6.573L12.21,14.949l1.6,2.577,4.474,6.444h.258l4.474-6.444,1.6-2.577-1.567-2.578-4.511-6.7Z" transform="translate(556.676 2237.249)" fill="#0af"/>
    <path id="Path_16" data-name="Path 16" d="M148,18l.129.129Z" transform="translate(427.922 2219.684)" fill="#d5d5d5"/>
    <path id="Path_17" data-name="Path 17" d="M152,19l.129.129Z" transform="translate(424.412 2218.806)" fill="#cfcfcf"/>
    <path id="Path_18" data-name="Path 18" d="M146,21l.129.129Z" transform="translate(429.678 2217.051)" fill="#d5d5d5"/>
    <path id="Path_19" data-name="Path 19" d="M154,22l.129.129Z" transform="translate(422.656 2216.173)" fill="#cfcfcf"/>
    <path id="Path_20" data-name="Path 20" d="M142.258,24l.129.129L142.258,24m-.258.387.129.129Z" transform="translate(433.182 2214.412)" fill="#d5d5d5"/>
    <path id="Path_21" data-name="Path 21" d="M164,37l.129.129Z" transform="translate(413.879 2203.008)" fill="#dbdbdb"/>
    <path id="Path_22" data-name="Path 22" d="M167,41l.129.129Z" transform="translate(411.246 2199.497)" fill="#cfcfcf"/>
    <path id="Path_23" data-name="Path 23" d="M131,43l.129.129Z" transform="translate(442.843 2197.741)" fill="#d5d5d5"/>
    <path id="Path_24" data-name="Path 24" d="M130,44l.129.129L130,44m5.026,0,.129.129Z" transform="translate(443.593 2196.864)" fill="#cfcfcf"/>
    <path id="Path_25" data-name="Path 25" d="M129,46l.129.129Z" transform="translate(444.599 2195.108)" fill="#d5d5d5"/>
    <path id="Path_26" data-name="Path 26" d="M171,47l.129.129Z" transform="translate(407.735 2194.23)" fill="#cfcfcf"/>
    <path id="Path_27" data-name="Path 27" d="M127,49l.129.129Z" transform="translate(446.354 2192.475)" fill="#d5d5d5"/>
    <path id="Path_28" data-name="Path 28" d="M173,50l.129.129Z" transform="translate(405.98 2191.597)" fill="#cfcfcf"/>
    <path id="Path_29" data-name="Path 29" d="M123.258,52l.129.129L123.258,52m-.258.387.129.129Z" transform="translate(449.858 2189.836)" fill="#d5d5d5"/>
    <path id="Path_31" data-name="Path 31" d="M151,62l.129.129Z" transform="translate(425.289 2181.065)" fill="#cfcfcf"/>
    <path id="Path_32" data-name="Path 32" d="M183,65l.129.129Z" transform="translate(397.203 2178.432)" fill="#dbdbdb"/>
    <path id="Path_33" data-name="Path 33" d="M154,66l.129.129Z" transform="translate(422.656 2177.554)" fill="#d5d5d5"/>
    <path id="Path_34" data-name="Path 34" d="M186,69l.129.129Z" transform="translate(394.57 2174.921)" fill="#cfcfcf"/>
    <path id="Path_35" data-name="Path 35" d="M112,71l.129.129Z" transform="translate(459.519 2173.166)" fill="#d5d5d5"/>
    <path id="Path_36" data-name="Path 36" d="M111,72l.129.129L111,72m9.923,0,.129.129Z" transform="translate(460.144 2172.288)" fill="#cfcfcf"/>
    <path id="Path_37" data-name="Path 37" d="M110,74l.129.129Z" transform="translate(461.275 2170.532)" fill="#d5d5d5"/>
    <path id="Path_38" data-name="Path 38" d="M190,75l.129.129Z" transform="translate(391.059 2169.655)" fill="#cfcfcf"/>
    <path id="Path_39" data-name="Path 39" d="M108,77l.129.129Z" transform="translate(463.03 2167.9)" fill="#d5d5d5"/>
    <path id="Path_40" data-name="Path 40" d="M192,78l.129.129Z" transform="translate(389.304 2167.022)" fill="#cfcfcf"/>
    <path id="Path_41" data-name="Path 41" d="M106,80l.129.129Z" transform="translate(464.786 2165.266)" fill="#d5d5d5"/>
    <path id="Path_42" data-name="Path 42" d="M164,81l.129.129Z" transform="translate(413.879 2164.388)" fill="#cfcfcf"/>
    <path id="Path_43" data-name="Path 43" d="M104,83l.129.129Z" transform="translate(466.541 2162.634)" fill="#d5d5d5"/>
    <path id="Path_44" data-name="Path 44" d="M135.51,84l.129.129L135.51,84m-4.51.387.129.129L131,84.387m4.768,0,.129.129-.129-.129m.258.387.129.129Z" transform="translate(442.715 2161.74)" fill="#cfcfcf"/>
    <path id="Path_45" data-name="Path 45" d="M202,93l.129.129Z" transform="translate(380.527 2153.856)" fill="#dbdbdb"/>
    <path id="Path_46" data-name="Path 46" d="M173,94l.129.129Z" transform="translate(405.98 2152.979)" fill="#d5d5d5"/>
    <path id="Path_47" data-name="Path 47" d="M205,97l.129.129Z" transform="translate(377.894 2150.346)" fill="#cfcfcf"/>
    <path id="Path_48" data-name="Path 48" d="M93,99l.129.129Z" transform="translate(476.196 2148.59)" fill="#d5d5d5"/>
    <path id="Path_49" data-name="Path 49" d="M92,100l.129.129L92,100m14.82,0,.129.129Z" transform="translate(476.696 2147.713)" fill="#cfcfcf"/>
    <path id="Path_50" data-name="Path 50" d="M91,102l.129.129Z" transform="translate(477.951 2145.957)" fill="#d5d5d5"/>
    <path id="Path_51" data-name="Path 51" d="M209,103l.129.129Z" transform="translate(374.383 2145.079)" fill="#cfcfcf"/>
    <path id="Path_52" data-name="Path 52" d="M89,105l.129.129Z" transform="translate(479.706 2143.324)" fill="#d5d5d5"/>
    <path id="Path_53" data-name="Path 53" d="M211,106l.129.129Z" transform="translate(372.628 2142.447)" fill="#cfcfcf"/>
    <path id="Path_54" data-name="Path 54" d="M87,108l.129.129Z" transform="translate(481.462 2140.691)" fill="#d5d5d5"/>
    <path id="Path_55" data-name="Path 55" d="M183,109l.129.129Z" transform="translate(397.203 2139.813)" fill="#cfcfcf"/>
    <path id="Path_56" data-name="Path 56" d="M85,111l.129.129Z" transform="translate(483.217 2138.058)" fill="#d5d5d5"/>
    <path id="Path_57" data-name="Path 57" d="M121.408,112l.129.129-.129-.129m-9.408.387.129.129-.129-.129m9.665,0,.129.129-.129-.129m.258.387.129.129Z" transform="translate(459.266 2137.163)" fill="#cfcfcf"/>
    <path id="Path_58" data-name="Path 58" d="M221,121l.129.129Z" transform="translate(363.851 2129.281)" fill="#dbdbdb"/>
    <path id="Path_59" data-name="Path 59" d="M192,122l.129.129Z" transform="translate(389.304 2128.403)" fill="#d5d5d5"/>
    <path id="Path_60" data-name="Path 60" d="M224,125l.129.129Z" transform="translate(361.218 2125.77)" fill="#cfcfcf"/>
    <path id="Path_61" data-name="Path 61" d="M74,127l.129.129Z" transform="translate(492.872 2124.014)" fill="#d5d5d5"/>
    <path id="Path_62" data-name="Path 62" d="M73,128l.129.129L73,128m19.717,0,.129.129Z" transform="translate(493.247 2123.137)" fill="#cfcfcf"/>
    <path id="Path_63" data-name="Path 63" d="M72,130l.129.129Z" transform="translate(494.627 2121.381)" fill="#d5d5d5"/>
    <path id="Path_64" data-name="Path 64" d="M228,131l.129.129Z" transform="translate(357.707 2120.504)" fill="#cfcfcf"/>
    <path id="Path_65" data-name="Path 65" d="M70,133l.129.129L70,133m16.624,0,.129.129Z" transform="translate(495.973 2118.749)" fill="#d5d5d5"/>
    <path id="Path_66" data-name="Path 66" d="M101,134l.129.129L101,134m16.624,0,.129.129Z" transform="translate(468.736 2117.871)" fill="#cfcfcf"/>
    <path id="Path_67" data-name="Path 67" d="M66.258,136l.129.129L66.258,136m-.258.387.129.129L66,136.387m4.9,0,.129.129Z" transform="translate(499.784 2116.106)" fill="#d5d5d5"/>
    <path id="Path_68" data-name="Path 68" d="M106,141l.129.129L106,141m11.212,0,.129.129Z" transform="translate(464.5 2111.727)" fill="#cfcfcf"/>
    <path id="Path_69" data-name="Path 69" d="M192,143l.129.129Z" transform="translate(389.304 2109.971)" fill="#d5d5d5"/>
    <path id="Path_70" data-name="Path 70" d="M108,144l.129.129Z" transform="translate(463.03 2109.094)" fill="#cfcfcf"/>
    <path id="Path_71" data-name="Path 71" d="M111,149l.129.129Z" transform="translate(460.397 2104.705)" fill="#d5d5d5"/>
    <path id="Path_72" data-name="Path 72" d="M240,149l.129.129Z" transform="translate(347.175 2104.705)" fill="#dbdbdb"/>
    <path id="Path_73" data-name="Path 73" d="M113,151l.129.129L113,151m9.408,0,.129.129Z" transform="translate(458.402 2102.95)" fill="#cfcfcf"/>
    <path id="Path_74" data-name="Path 74" d="M185,153l.129.129Z" transform="translate(395.448 2101.194)" fill="#d5d5d5"/>
    <path id="Path_75" data-name="Path 75" d="M131.5,153l.129.129L131.5,153m-16.5.129.129.129Z" transform="translate(456.439 2101.191)" fill="#cfcfcf"/>
    <path id="Path_76" data-name="Path 76" d="M55,155l.129.129Z" transform="translate(509.548 2099.439)" fill="#d5d5d5"/>
    <path id="Path_78" data-name="Path 78" d="M54,156l.129.129L54,156m4.124,0,.129.129L58.124,156m16.367,0,.129.129L74.49,156m4.124,0,.129.129Z" transform="translate(509.799 2098.562)" fill="#cfcfcf"/>
    <path id="Path_79" data-name="Path 79" d="M53,158l.129.129L53,158m4.51,0,.129.129L57.51,158m3.866.129.129.129Z" transform="translate(511.118 2096.803)" fill="#d5d5d5"/>
    <path id="Path_80" data-name="Path 80" d="M247,159l.129.129Z" transform="translate(341.031 2095.928)" fill="#cfcfcf"/>
    <path id="Path_81" data-name="Path 81" d="M51,161l.129.129Z" transform="translate(513.059 2094.173)" fill="#d5d5d5"/>
    <path id="Path_82" data-name="Path 82" d="M94.737,161l.129.129L94.737,161m7.6,0,.129.129-.129-.129m9.021.129.129.129-.129-.129M91,161.258l.129.129Z" transform="translate(477.409 2094.166)" fill="#cfcfcf"/>
    <path id="Path_83" data-name="Path 83" d="M65.624,163l.129.129L65.624,163M49,163.129l.129.129Z" transform="translate(514.424 2092.414)" fill="#d5d5d5"/>
    <path id="Path_84" data-name="Path 84" d="M96.737,164l.129.129L96.737,164m12.758.129.129.129-.129-.129m-16.5.129.129.129L93,164.258m14.562,0,.129.129Z" transform="translate(475.769 2091.532)" fill="#cfcfcf"/>
    <path id="Path_85" data-name="Path 85" d="M47,167l.129.129L47,167m6.186.129.129.129Z" transform="translate(516.437 2088.903)" fill="#d5d5d5"/>
    <path id="Path_86" data-name="Path 86" d="M223,168l.129.129Z" transform="translate(362.095 2088.029)" fill="#cfcfcf"/>
    <path id="Path_87" data-name="Path 87" d="M125,169l.129.129Z" transform="translate(448.109 2087.151)" fill="#d5d5d5"/>
    <path id="Path_88" data-name="Path 88" d="M74,171l.129.129L74,171m6.83,0,.129.129L80.83,171m5.8,0,.129.129L86.629,171m6.83,0,.129.129L93.46,171m-16.367.258.129.129Z" transform="translate(492.376 2085.389)" fill="#cfcfcf"/>
    <path id="Path_89" data-name="Path 89" d="M171,173l.129.129Z" transform="translate(407.735 2083.64)" fill="#d5d5d5"/>
    <path id="Path_90" data-name="Path 90" d="M103.737,174l.129.129-.129-.129m12.629,0,.129.129-.129-.129M100,174.258l.129.129-.129-.129m12.758,0,.129.129Z" transform="translate(469.622 2082.755)" fill="#cfcfcf"/>
    <path id="Path_91" data-name="Path 91" d="M259,177l.129.129Z" transform="translate(330.498 2080.129)" fill="#dbdbdb"/>
    <path id="Path_92" data-name="Path 92" d="M102,178l.129.129L102,178m16.5,0,.129.129L118.5,178m-12.629.129.129.129Z" transform="translate(467.861 2079.248)" fill="#d5d5d5"/>
    <path id="Path_93" data-name="Path 93" d="M134,181l.129.129L134,181M138,181l.129.129L138,181m12.5,0,.129.129Z" transform="translate(439.746 2076.619)" fill="#cfcfcf"/>
    <path id="Path_94" data-name="Path 94" d="M36,183l.129.129Z" transform="translate(526.224 2074.863)" fill="#d5d5d5"/>
    <path id="Path_95" data-name="Path 95" d="M105,183l.129.129Z" transform="translate(465.663 2074.863)" fill="#cfcfcf"/>
    <path id="Path_96" data-name="Path 96" d="M164,183l.129.129Z" transform="translate(413.879 2074.863)" fill="#d5d5d5"/>
    <path id="Path_97" data-name="Path 97" d="M35,184l.129.129L35,184m13.016,0,.129.129L48.016,184m16.5,0,.129.129Z" transform="translate(526.35 2073.986)" fill="#cfcfcf"/>
    <path id="Path_98" data-name="Path 98" d="M34,186l.129.129Z" transform="translate(527.979 2072.23)" fill="#d5d5d5"/>
    <path id="Path_99" data-name="Path 99" d="M107,186l.129.129L107,186m10.954,0,.129.129-.129-.129m9.536.129.129.129Z" transform="translate(463.343 2072.227)" fill="#cfcfcf"/>
    <path id="Path_100" data-name="Path 100" d="M41.923,188l.129.129L41.923,188M32,188.129l.129.129L32,188.129m13.789,0,.129.129Z" transform="translate(529.431 2070.471)" fill="#d5d5d5"/>
    <path id="Path_101" data-name="Path 101" d="M157.367,190l.129.129-.129-.129M141,190.129l.129.129-.129-.129m2.191,0,.129.129Z" transform="translate(433.6 2068.716)" fill="#cfcfcf"/>
    <path id="Path_102" data-name="Path 102" d="M30,192l.129.129Z" transform="translate(531.49 2066.964)" fill="#d5d5d5"/>
    <path id="Path_103" data-name="Path 103" d="M112,193l.129.129Z" transform="translate(459.519 2066.086)" fill="#cfcfcf"/>
    <path id="Path_104" data-name="Path 104" d="M157,193l.129.129Z" transform="translate(420.023 2066.086)" fill="#d5d5d5"/>
    <path id="Path_105" data-name="Path 105" d="M155.5,193l.129.129L155.5,193m-12.5.129.129.129Z" transform="translate(431.964 2066.083)" fill="#cfcfcf"/>
    <path id="Path_106" data-name="Path 106" d="M28,195l.129.129Z" transform="translate(533.246 2064.331)" fill="#d5d5d5"/>
    <path id="Path_107" data-name="Path 107" d="M114,196l.129.129L114,196m9.15,0,.129.129L123.15,196m7.346,0,.129.129Z" transform="translate(457.318 2063.453)" fill="#cfcfcf"/>
    <path id="Path_108" data-name="Path 108" d="M116,198l.129.129Z" transform="translate(456.009 2061.698)" fill="#d5d5d5"/>
    <path id="Path_109" data-name="Path 109" d="M55,199l.129.129Z" transform="translate(509.548 2060.82)" fill="#cfcfcf"/>
    <path id="Path_110" data-name="Path 110" d="M146,199l.129.129Z" transform="translate(429.678 2060.82)" fill="#d5d5d5"/>
    <path id="Path_111" data-name="Path 111" d="M135.109,199l.129.129-.129-.129m-12.372.258.129.129-.129-.129m.387,0,.129.129-.129-.129m12.243.129.129.129-.129-.129M119,199.515l.129.129Z" transform="translate(452.929 2060.805)" fill="#cfcfcf"/>
    <path id="Path_112" data-name="Path 112" d="M150,203l.129.129Z" transform="translate(426.167 2057.309)" fill="#d5d5d5"/>
    <path id="Path_113" data-name="Path 113" d="M278,205l.129.129Z" transform="translate(313.822 2055.554)" fill="#dbdbdb"/>
    <path id="Path_114" data-name="Path 114" d="M121,206l.129.129L121,206m7.346,0,.129.129Z" transform="translate(451.433 2054.676)" fill="#cfcfcf"/>
    <path id="Path_115" data-name="Path 115" d="M139.238,206l.129.129-.129-.129M123,206.258l.129.129Z" transform="translate(449.419 2054.668)" fill="#d5d5d5"/>
    <path id="Path_116" data-name="Path 116" d="M281,209l.129.129Z" transform="translate(311.189 2052.043)" fill="#cfcfcf"/>
    <path id="Path_117" data-name="Path 117" d="M17,211l.129.129Z" transform="translate(542.9 2050.288)" fill="#d5d5d5"/>
    <path id="Path_118" data-name="Path 118" d="M16,212l.129.129L16,212m34.409,0,.129.129L50.409,212m-20.233.129.129.129Z" transform="translate(542.902 2049.406)" fill="#cfcfcf"/>
    <path id="Path_119" data-name="Path 119" d="M15,214l.129.129Z" transform="translate(544.656 2047.655)" fill="#d5d5d5"/>
    <path id="Path_120" data-name="Path 120" d="M148.233,215l.129.129-.129-.129M128,215.129l.129.129-.129-.129m5.541,0,.129.129Z" transform="translate(444.895 2046.773)" fill="#cfcfcf"/>
    <path id="Path_121" data-name="Path 121" d="M13,217l.129.129L13,217m15.078.129.129.129Z" transform="translate(546.091 2045.017)" fill="#d5d5d5"/>
    <path id="Path_122" data-name="Path 122" d="M287,218l.129.129Z" transform="translate(305.923 2044.144)" fill="#cfcfcf"/>
    <path id="Path_123" data-name="Path 123" d="M11,220l.129.129Z" transform="translate(548.166 2042.389)" fill="#d5d5d5"/>
    <path id="Path_124" data-name="Path 124" d="M259,221l.129.129Z" transform="translate(330.498 2041.511)" fill="#cfcfcf"/>
    <path id="Path_125" data-name="Path 125" d="M9,223l.129.129Z" transform="translate(549.922 2039.755)" fill="#d5d5d5"/>
    <path id="Path_126" data-name="Path 126" d="M133,223l.129.129L133,223m16.5.129.129.129-.129-.129m-12.114.258.129.129-.129-.129m.9,1.031.129.129Z" transform="translate(440.624 2039.709)" fill="#cfcfcf"/>
    <path id="Path_127" data-name="Path 127" d="M15,237l.129.129L15,237m34.666,0,.129.129L49.666,237m-34.537.129.129.129-.129-.129m34.409,0,.129.129-.129-.129m-34.28.129.129.129-.129-.129m34.151,0,.129.129-.129-.129m-34.022.129.129.129-.129-.129m13.4,0,.129.129Z" transform="translate(543.773 2027.455)" fill="#d5d5d5"/>
    <path id="Path_128" data-name="Path 128" d="M179,240l.129.129Z" transform="translate(400.714 2024.834)" fill="#dbdbdb"/>
    <path id="Path_129" data-name="Path 129" d="M52.764,240l.129.129L52.764,240M19,240.129l.129.129L19,240.129m33.635,0,.129.129-.129-.129m-33.506.129.129.129Z" transform="translate(540.284 2024.826)" fill="#d5d5d5"/>
    <path id="Path_130" data-name="Path 130" d="M120,242l.129.129L120,242m7.861,0,.129.129Z" transform="translate(452.297 2023.079)" fill="#cfcfcf"/>
    <path id="Path_131" data-name="Path 131" d="M54.249,242l.129.129L54.249,242M21,242.129l.129.129L21,242.129m33.12,0,.129.129-.129-.129m-32.991.129.129.129-.129-.129m32.862,0,.129.129-.129-.129m-32.733.129.129.129-.129-.129m32.6,0,.129.129Z" transform="translate(538.542 2023.066)" fill="#d5d5d5"/>
    <path id="Path_132" data-name="Path 132" d="M116,247l.129.129Z" transform="translate(456.009 2018.691)" fill="#cfcfcf"/>
    <path id="Path_133" data-name="Path 133" d="M186,248l.129.129Z" transform="translate(394.57 2017.813)" fill="#dbdbdb"/>
    <path id="Path_135" data-name="Path 135" d="M1.328-5.318v-5.965H3.91a3.354,3.354,0,0,1,1.38.26,2.021,2.021,0,0,1,.895.746A2.082,2.082,0,0,1,6.5-9.118a2.066,2.066,0,0,1-.315,1.15,2.021,2.021,0,0,1-.895.746,3.354,3.354,0,0,1-1.38.26H2.095l.614-.622v2.267Zm1.38-2.113-.614-.656H3.833a1.428,1.428,0,0,0,.954-.273A.949.949,0,0,0,5.1-9.118a.96.96,0,0,0-.315-.767,1.428,1.428,0,0,0-.954-.273H2.095l.614-.656ZM7.481-5.318v-5.965h2.582a3.354,3.354,0,0,1,1.38.26,2.021,2.021,0,0,1,.895.746,2.082,2.082,0,0,1,.315,1.159,2.045,2.045,0,0,1-.315,1.146,2,2,0,0,1-.895.737,3.4,3.4,0,0,1-1.38.256H8.247l.614-.605v2.267Zm3.792,0L9.781-7.482h1.474l1.508,2.164ZM8.861-7.431l-.614-.648H9.986a1.413,1.413,0,0,0,.954-.277.962.962,0,0,0,.315-.763.96.96,0,0,0-.315-.767,1.428,1.428,0,0,0-.954-.273H8.247l.614-.656Zm7.763,2.207a3.639,3.639,0,0,1-1.291-.226,3.041,3.041,0,0,1-1.04-.643,2.842,2.842,0,0,1-.673-.984A3.282,3.282,0,0,1,13.377-8.3a3.032,3.032,0,0,1,.243-1.223,3.014,3.014,0,0,1,.682-.98,3.07,3.07,0,0,1,1.035-.652,3.425,3.425,0,0,1,1.287-.222,3.468,3.468,0,0,1,1.308.222,3.114,3.114,0,0,1,1.031.648,2.967,2.967,0,0,1,.682.976A2.958,2.958,0,0,1,19.879-8.3a2.993,2.993,0,0,1-.234,1.231,2.9,2.9,0,0,1-.682.98,3.15,3.15,0,0,1-1.031.643A3.468,3.468,0,0,1,16.624-5.224Zm0-1.159a2.123,2.123,0,0,0,.75-.145,1.713,1.713,0,0,0,.592-.392,1.823,1.823,0,0,0,.392-.605,2.178,2.178,0,0,0,.149-.775,2.178,2.178,0,0,0-.149-.775,1.823,1.823,0,0,0-.392-.605,1.765,1.765,0,0,0-.592-.4,1.948,1.948,0,0,0-.75-.141,2.078,2.078,0,0,0-.733.145,1.713,1.713,0,0,0-.592.392,1.834,1.834,0,0,0-.392.6,2.165,2.165,0,0,0-.149.78,2.192,2.192,0,0,0,.149.771,1.813,1.813,0,0,0,.392.609,1.775,1.775,0,0,0,.588.4A1.894,1.894,0,0,0,16.624-6.383Zm5.905,1.065-2.573-5.965h1.491L23.7-6h-.878L25.1-11.283h1.372L23.893-5.318Zm4.44,0v-5.965h1.38v5.965Zm2.8,0v-5.965h2.71a3.782,3.782,0,0,1,1.713.371,2.83,2.83,0,0,1,1.159,1.035A2.85,2.85,0,0,1,35.755-8.3a2.855,2.855,0,0,1-.409,1.572,2.82,2.82,0,0,1-1.159,1.04,3.782,3.782,0,0,1-1.713.371Zm1.38-1.133h1.261a2.133,2.133,0,0,0,1.035-.222,1.666,1.666,0,0,0,.682-.648,1.976,1.976,0,0,0,.251-.98,1.968,1.968,0,0,0-.251-.984,1.674,1.674,0,0,0-.682-.643,2.133,2.133,0,0,0-1.035-.222l-1.261-.009Zm6.919-2.42,2.88-.009v1.065l-2.872.009Zm.094,2.446h3.264l-.009,1.108H36.8l.009-5.965h4.5l-.017,1.108H38.175Zm4.363,1.108v-5.965h2.71a3.782,3.782,0,0,1,1.713.371A2.83,2.83,0,0,1,48.1-9.876,2.85,2.85,0,0,1,48.511-8.3,2.855,2.855,0,0,1,48.1-6.728a2.82,2.82,0,0,1-1.159,1.04,3.782,3.782,0,0,1-1.713.371ZM43.9-6.451h1.261A2.133,2.133,0,0,0,46.2-6.672a1.666,1.666,0,0,0,.682-.648,1.976,1.976,0,0,0,.251-.98,1.968,1.968,0,0,0-.251-.984,1.674,1.674,0,0,0-.682-.643,2.133,2.133,0,0,0-1.035-.222L43.9-10.158Zm8.07,1.133v-5.965h2.914a2.8,2.8,0,0,1,1.692.426,1.34,1.34,0,0,1,.567,1.125,1.433,1.433,0,0,1-.23.814,1.507,1.507,0,0,1-.631.533,2.148,2.148,0,0,1-.92.187l.162-.349a2.548,2.548,0,0,1,1,.183,1.5,1.5,0,0,1,.677.541,1.527,1.527,0,0,1,.243.878,1.387,1.387,0,0,1-.605,1.2,3.063,3.063,0,0,1-1.781.43Zm1.372-1.04h1.611a1.54,1.54,0,0,0,.814-.175.611.611,0,0,0,.277-.558.623.623,0,0,0-.277-.558,1.482,1.482,0,0,0-.814-.183H53.241V-8.837h1.474a1.416,1.416,0,0,0,.771-.175.592.592,0,0,0,.268-.533.584.584,0,0,0-.268-.524,1.416,1.416,0,0,0-.771-.175H53.343Zm6.5,1.04V-7.755l.315.835-2.625-4.363H59l2.011,3.349h-.844l2.02-3.349h1.355L60.919-6.92l.307-.835v2.437Z" transform="translate(544.53 2231)" fill="#0af"/>
    <path id="Path_134" data-name="Path 134" d="M2.3-5.325-.144-11.29H1.271L3.407-6.006H2.574L4.741-11.29h1.3L3.593-5.325Zm6.85.1A2.49,2.49,0,0,1,7.264-5.93a2.8,2.8,0,0,1-.679-2.02v-3.34H7.9V-8a1.836,1.836,0,0,0,.332,1.227,1.177,1.177,0,0,0,.93.375,1.177,1.177,0,0,0,.93-.375A1.836,1.836,0,0,0,10.419-8V-11.29h1.294v3.34a2.8,2.8,0,0,1-.679,2.02A2.49,2.49,0,0,1,9.149-5.222Zm3.866-.1-.008-5.965h1.3l.008,4.84h2.831l.008,1.125Zm6.05-1.363-.073-1.594L21.7-11.29h1.456L20.714-8.52l-.728.818ZM17.892-5.325V-11.29h1.3v5.965Zm3.874,0-2.014-2.6.857-.98,2.685,3.579Zm6.26.1a4.4,4.4,0,0,1-1.3-.192,2.982,2.982,0,0,1-1-.5l.445-1.04a3.186,3.186,0,0,0,.861.447,3.019,3.019,0,0,0,1.007.175,2,2,0,0,0,.627-.081.729.729,0,0,0,.352-.226.525.525,0,0,0,.113-.332.458.458,0,0,0-.178-.379,1.429,1.429,0,0,0-.469-.23q-.291-.089-.643-.17a7.259,7.259,0,0,1-.7-.2,2.905,2.905,0,0,1-.643-.307,1.471,1.471,0,0,1-.473-.494,1.519,1.519,0,0,1-.182-.784,1.729,1.729,0,0,1,.263-.933,1.821,1.821,0,0,1,.793-.673,3.1,3.1,0,0,1,1.33-.251,4.236,4.236,0,0,1,1.051.132,2.947,2.947,0,0,1,.914.4l-.4,1.048a3.349,3.349,0,0,0-.793-.354,2.777,2.777,0,0,0-.776-.115,1.75,1.75,0,0,0-.623.094.734.734,0,0,0-.348.243.584.584,0,0,0-.105.345.449.449,0,0,0,.178.371,1.373,1.373,0,0,0,.469.226q.291.085.643.17t.7.2a2.653,2.653,0,0,1,.643.3,1.471,1.471,0,0,1,.473.494,1.5,1.5,0,0,1,.182.775,1.674,1.674,0,0,1-.267.92,1.887,1.887,0,0,1-.8.673A3.077,3.077,0,0,1,28.026-5.222Zm6.009,0a3.235,3.235,0,0,1-1.217-.226,2.843,2.843,0,0,1-.975-.643,2.994,2.994,0,0,1-.643-.98,3.228,3.228,0,0,1-.231-1.236A3.228,3.228,0,0,1,31.2-9.543a2.962,2.962,0,0,1,.647-.98,2.9,2.9,0,0,1,.975-.643,3.226,3.226,0,0,1,1.221-.226,3.2,3.2,0,0,1,1.33.268,2.609,2.609,0,0,1,1,.788l-.841.818a1.984,1.984,0,0,0-.647-.524,1.738,1.738,0,0,0-.776-.175,1.9,1.9,0,0,0-.728.136,1.644,1.644,0,0,0-.574.392,1.8,1.8,0,0,0-.376.605,2.158,2.158,0,0,0-.133.775,2.158,2.158,0,0,0,.133.775,1.8,1.8,0,0,0,.376.605,1.644,1.644,0,0,0,.574.392,1.9,1.9,0,0,0,.728.136,1.738,1.738,0,0,0,.776-.175,1.943,1.943,0,0,0,.647-.533l.841.818a2.647,2.647,0,0,1-1,.792A3.174,3.174,0,0,1,34.035-5.222Zm3.219-.1V-11.29H39.7a3.042,3.042,0,0,1,1.31.26,1.947,1.947,0,0,1,.849.746,2.166,2.166,0,0,1,.3,1.159,2.127,2.127,0,0,1-.3,1.146,1.929,1.929,0,0,1-.849.737,3.086,3.086,0,0,1-1.31.256H37.982l.582-.605v2.267Zm3.6,0L39.438-7.489h1.4l1.432,2.164ZM38.564-7.438l-.582-.648h1.65a1.294,1.294,0,0,0,.906-.277.988.988,0,0,0,.3-.763.985.985,0,0,0-.3-.767,1.308,1.308,0,0,0-.906-.273h-1.65l.582-.656ZM43.2-5.325V-11.29h1.31v5.965Zm2.653,0V-11.29H48.3a3.042,3.042,0,0,1,1.31.26,1.947,1.947,0,0,1,.849.746,2.166,2.166,0,0,1,.3,1.159,2.149,2.149,0,0,1-.3,1.15,1.947,1.947,0,0,1-.849.746,3.042,3.042,0,0,1-1.31.26H46.579l.582-.622v2.267Zm1.31-2.113-.582-.656h1.65a1.308,1.308,0,0,0,.906-.273.974.974,0,0,0,.3-.758.985.985,0,0,0-.3-.767,1.308,1.308,0,0,0-.906-.273h-1.65l.582-.656Zm5.556,2.113-.008-4.84H50.9V-11.29h4.925l.008,1.125h-1.82l.008,4.84Zm3.817,0V-11.29h1.31v5.965Zm2.653,0V-11.29h1.084l3.34,4.295-.518.009-.008-4.3h1.294v5.965H63.3L59.957-9.62l.526-.009v4.3Zm9.269.1a3.279,3.279,0,0,1-1.233-.226,2.885,2.885,0,0,1-.979-.643,2.963,2.963,0,0,1-.647-.98,3.228,3.228,0,0,1-.231-1.236A3.228,3.228,0,0,1,65.6-9.543a2.932,2.932,0,0,1,.651-.98,2.919,2.919,0,0,1,.987-.643,3.333,3.333,0,0,1,1.246-.226,3.34,3.34,0,0,1,1.355.264,2.692,2.692,0,0,1,1.015.767l-.841.818a2.058,2.058,0,0,0-.671-.507,1.885,1.885,0,0,0-.793-.166,2,2,0,0,0-.752.136,1.667,1.667,0,0,0-.586.392,1.77,1.77,0,0,0-.38.605,2.158,2.158,0,0,0-.133.775,2.133,2.133,0,0,0,.133.767,1.816,1.816,0,0,0,.38.609,1.649,1.649,0,0,0,.582.4,1.949,1.949,0,0,0,.74.136,2.222,2.222,0,0,0,.756-.132A2.161,2.161,0,0,0,70-6.978l.744,1a3.348,3.348,0,0,1-1.072.562A3.964,3.964,0,0,1,68.457-5.222Zm1.092-.937V-8.4h1.2v2.42Zm4.7.835V-11.29H76.82a3.437,3.437,0,0,1,1.626.371,2.739,2.739,0,0,1,1.1,1.035,2.969,2.969,0,0,1,.388,1.576,2.974,2.974,0,0,1-.388,1.572,2.73,2.73,0,0,1-1.1,1.04,3.437,3.437,0,0,1-1.626.371Zm1.31-1.133h1.2a1.939,1.939,0,0,0,.983-.222,1.62,1.62,0,0,0,.647-.648,2.059,2.059,0,0,0,.239-.98,2.051,2.051,0,0,0-.239-.984,1.627,1.627,0,0,0-.647-.643,1.939,1.939,0,0,0-.983-.222l-1.2-.009Zm6.567-2.42,2.734-.009v1.065l-2.726.009Zm.089,2.446h3.1L85.3-5.325H80.928l.008-5.965h4.27l-.016,1.108H82.23Zm4.149,1.108-.008-5.965h1.3l.008,4.84H90.5L90.5-5.325Zm6.074-3.553,2.734-.009v1.065l-2.726.009Zm.089,2.446h3.1l-.008,1.108H91.24l.008-5.965h4.27L95.5-10.182h-2.96ZM99.4-5.222a3.279,3.279,0,0,1-1.233-.226,2.885,2.885,0,0,1-.979-.643,2.963,2.963,0,0,1-.647-.98,3.228,3.228,0,0,1-.23-1.236,3.228,3.228,0,0,1,.23-1.236,2.932,2.932,0,0,1,.651-.98,2.919,2.919,0,0,1,.987-.643,3.333,3.333,0,0,1,1.246-.226,3.34,3.34,0,0,1,1.355.264,2.692,2.692,0,0,1,1.015.767l-.841.818a2.058,2.058,0,0,0-.671-.507,1.885,1.885,0,0,0-.793-.166,2,2,0,0,0-.752.136,1.667,1.667,0,0,0-.586.392,1.769,1.769,0,0,0-.38.605,2.158,2.158,0,0,0-.133.775,2.133,2.133,0,0,0,.133.767,1.816,1.816,0,0,0,.38.609,1.649,1.649,0,0,0,.582.4,1.949,1.949,0,0,0,.74.136,2.222,2.222,0,0,0,.756-.132,2.161,2.161,0,0,0,.716-.447l.744,1a3.348,3.348,0,0,1-1.072.562A3.964,3.964,0,0,1,99.4-5.222Zm1.092-.937V-8.4h1.2v2.42Zm1.666.835,2.523-5.965h1.294l2.531,5.965h-1.375l-2.07-5.266h.518L103.5-5.325ZM103.421-6.6l.348-1.048h2.912l.356,1.048ZM110-5.325l-.008-4.84h-1.812V-11.29H113.1l.008,1.125h-1.82l.008,4.84Zm3.817,0V-11.29h1.31v5.965Zm5.386.094a3.3,3.3,0,0,1-1.225-.226,2.867,2.867,0,0,1-.987-.643,2.852,2.852,0,0,1-.639-.984,3.435,3.435,0,0,1-.231-1.223,3.173,3.173,0,0,1,.231-1.223,3.022,3.022,0,0,1,.647-.98,2.9,2.9,0,0,1,.983-.652,3.1,3.1,0,0,1,1.221-.222,3.142,3.142,0,0,1,1.241.222,2.939,2.939,0,0,1,.979.648,2.974,2.974,0,0,1,.647.976,3.1,3.1,0,0,1,.222,1.231,3.134,3.134,0,0,1-.222,1.231,2.905,2.905,0,0,1-.647.98,2.971,2.971,0,0,1-.979.643A3.142,3.142,0,0,1,119.2-5.231Zm0-1.159a1.925,1.925,0,0,0,.712-.145,1.622,1.622,0,0,0,.562-.392,1.836,1.836,0,0,0,.372-.605,2.281,2.281,0,0,0,.142-.775,2.281,2.281,0,0,0-.142-.775,1.836,1.836,0,0,0-.372-.605,1.672,1.672,0,0,0-.562-.4,1.767,1.767,0,0,0-.712-.141,1.886,1.886,0,0,0-.7.145,1.622,1.622,0,0,0-.562.392,1.846,1.846,0,0,0-.372.6,2.267,2.267,0,0,0-.142.78,2.3,2.3,0,0,0,.142.771,1.827,1.827,0,0,0,.372.609,1.683,1.683,0,0,0,.558.4A1.718,1.718,0,0,0,119.2-6.39Zm4.092,1.065V-11.29h1.084l3.34,4.295-.518.009-.008-4.3h1.294v5.965h-1.076L124.061-9.62l.526-.009v4.3Z" transform="translate(512 2293.374)" fill="#0af"/>
  </g>
</svg>
