<svg xmlns="http://www.w3.org/2000/svg" width="100" height="53.276" viewBox="0 0 100 53.276">
  <g id="Group_2" data-name="Group 2" transform="translate(-511.856 -2219.624)">
    <path id="Path_14" data-name="Path 14" d="M149.667,16.333l.067.033Z" transform="translate(412.156 2217.173)" fill="#cfcfcf"/>
    <path id="Subtraction_3" data-name="Subtraction 3" d="M6.251,25.837h0a10.128,10.128,0,0,1-1.551-.1,1.927,1.927,0,0,1-1.025-.7c-.06-.063-.119-.125-.177-.184-.347-.347-.689-.715-1.02-1.07-.446-.479-.906-.974-1.386-1.426C1.009,22.272.9,22.188.785,22.1c-.335-.261-.751-.585-.784-.954C-.029,20.8.375,20.3.7,19.9c.119-.147.222-.274.289-.375q.362-.547.721-1.1c.688-1.055,1.4-2.145,2.151-3.17C7.855,9.813,11.34,4.68,14.217,0h.2c1.113,1.636,2.252,3.294,3.353,4.9,2.471,3.6,5.027,7.319,7.453,11.032.6.917,1.23,1.834,1.841,2.722q.407.592.813,1.185c.053.078.129.171.209.27.282.348.633.781.528,1.133a2.139,2.139,0,0,1-.795.891,4.776,4.776,0,0,0-.376.316,13.687,13.687,0,0,0-.945,1.085,6.757,6.757,0,0,1-2.362,2.156,2.156,2.156,0,0,1-.746.1c-.189,0-.381-.012-.568-.023s-.339-.02-.49-.02H9.209c-.467,0-.964.022-1.444.043C7.267,25.814,6.752,25.837,6.251,25.837ZM7.8,13.826a37.351,37.351,0,0,1-2.287,3.466c-.361.5-.733,1.027-1.084,1.543-.08.118-.193.26-.324.425-.4.505-.9,1.134-.883,1.579.014.391.493.805.878,1.138.112.1.217.188.294.264s.164.171.251.265a3.227,3.227,0,0,0,.851.734,2.955,2.955,0,0,0,1.29.218c.4,0,.808-.032,1.205-.063.335-.026.652-.051.912-.051.136,0,.3.011.465.023.2.014.4.028.6.028a1.619,1.619,0,0,0,.808-.155c.476-.273,1.914-1.886,1.835-2.5a3.63,3.63,0,0,0-.9-1.492c-.152-.185-.3-.359-.4-.511-.323-.467-.634-.956-.963-1.474A19.37,19.37,0,0,0,7.8,13.826Zm12.925,0c-.687,1.113-1.47,2.2-2.227,3.248-.392.544-.8,1.1-1.182,1.661-.094.136-.231.3-.376.475a3.332,3.332,0,0,0-.9,1.529c-.017.439.536.979.94,1.374.124.122.242.236.325.33a3.037,3.037,0,0,0,2.5.945c.256,0,.513-.01.784-.021s.555-.023.839-.023c.128,0,.269.008.418.017s.331.019.5.019a1.756,1.756,0,0,0,.787-.139,3.46,3.46,0,0,0,.921-.8c.1-.106.188-.206.28-.3s.178-.165.282-.256a2.291,2.291,0,0,0,.776-.946c.1-.415-.421-1.082-.8-1.569-.1-.131-.193-.245-.255-.335-.377-.547-.75-1.147-1.11-1.728a21.119,21.119,0,0,0-2.5-3.481ZM14.217,4.408l-3.441,5.11-1.285,2.1,1.247,2,3.478,5.01h.2l3.478-5.01,1.247-2-1.219-2-3.507-5.21Z" transform="translate(546.701 2233.326)" fill="#0af"/>
    <path id="Path_16" data-name="Path 16" d="M148,18l.1.1Z" transform="translate(413.663 2215.664)" fill="#d5d5d5"/>
    <path id="Path_17" data-name="Path 17" d="M152,19l.1.1Z" transform="translate(410.044 2214.759)" fill="#cfcfcf"/>
    <path id="Path_18" data-name="Path 18" d="M146,21l.1.1Z" transform="translate(415.473 2212.949)" fill="#d5d5d5"/>
    <path id="Path_19" data-name="Path 19" d="M154,22l.1.1Z" transform="translate(408.234 2212.044)" fill="#cfcfcf"/>
    <path id="Path_20" data-name="Path 20" d="M142.2,24l.1.1-.1-.1m-.2.3.1.1Z" transform="translate(419.088 2210.23)" fill="#d5d5d5"/>
    <path id="Path_21" data-name="Path 21" d="M164,37l.1.1Z" transform="translate(399.185 2198.471)" fill="#dbdbdb"/>
    <path id="Path_22" data-name="Path 22" d="M167,41l.1.1Z" transform="translate(396.47 2194.851)" fill="#cfcfcf"/>
    <path id="Path_23" data-name="Path 23" d="M131,43l.1.1Z" transform="translate(429.047 2193.041)" fill="#d5d5d5"/>
    <path id="Path_24" data-name="Path 24" d="M130,44l.1.1L130,44m3.907,0,.1.1Z" transform="translate(429.852 2192.136)" fill="#cfcfcf"/>
    <path id="Path_25" data-name="Path 25" d="M129,46l.1.1Z" transform="translate(430.857 2190.326)" fill="#d5d5d5"/>
    <path id="Path_26" data-name="Path 26" d="M171,47l.1.1Z" transform="translate(392.85 2189.421)" fill="#cfcfcf"/>
    <path id="Path_27" data-name="Path 27" d="M127,49l.1.1Z" transform="translate(432.666 2187.612)" fill="#d5d5d5"/>
    <path id="Path_28" data-name="Path 28" d="M173,50l.1.1Z" transform="translate(391.04 2186.707)" fill="#cfcfcf"/>
    <path id="Path_29" data-name="Path 29" d="M123.2,52l.1.1-.1-.1m-.2.3.1.1Z" transform="translate(436.281 2184.892)" fill="#d5d5d5"/>
    <path id="Path_31" data-name="Path 31" d="M151,62l.1.1Z" transform="translate(410.948 2175.847)" fill="#cfcfcf"/>
    <path id="Path_32" data-name="Path 32" d="M183,65l.1.1Z" transform="translate(381.991 2173.133)" fill="#dbdbdb"/>
    <path id="Path_33" data-name="Path 33" d="M154,66l.1.1Z" transform="translate(408.234 2172.228)" fill="#d5d5d5"/>
    <path id="Path_34" data-name="Path 34" d="M186,69l.1.1Z" transform="translate(379.276 2169.513)" fill="#cfcfcf"/>
    <path id="Path_35" data-name="Path 35" d="M112,71l.1.1Z" transform="translate(446.24 2167.703)" fill="#d5d5d5"/>
    <path id="Path_36" data-name="Path 36" d="M111,72l.1.1L111,72m7.715,0,.1.1Z" transform="translate(446.949 2166.799)" fill="#cfcfcf"/>
    <path id="Path_37" data-name="Path 37" d="M110,74l.1.1Z" transform="translate(448.05 2164.989)" fill="#d5d5d5"/>
    <path id="Path_38" data-name="Path 38" d="M190,75l.1.1Z" transform="translate(375.657 2164.084)" fill="#cfcfcf"/>
    <path id="Path_39" data-name="Path 39" d="M108,77l.1.1Z" transform="translate(449.86 2162.274)" fill="#d5d5d5"/>
    <path id="Path_40" data-name="Path 40" d="M192,78l.1.1Z" transform="translate(373.847 2161.369)" fill="#cfcfcf"/>
    <path id="Path_41" data-name="Path 41" d="M106,80l.1.1Z" transform="translate(451.67 2159.559)" fill="#d5d5d5"/>
    <path id="Path_42" data-name="Path 42" d="M164,81l.1.1Z" transform="translate(399.185 2158.654)" fill="#cfcfcf"/>
    <path id="Path_43" data-name="Path 43" d="M104,83l.1.1Z" transform="translate(453.48 2156.844)" fill="#d5d5d5"/>
    <path id="Path_44" data-name="Path 44" d="M134.507,84l.1.1-.1-.1M131,84.3l.1.1-.1-.1m3.707,0,.1.1-.1-.1m.2.3.1.1Z" transform="translate(428.947 2155.927)" fill="#cfcfcf"/>
    <path id="Path_45" data-name="Path 45" d="M202,93l.1.1Z" transform="translate(364.798 2147.795)" fill="#dbdbdb"/>
    <path id="Path_46" data-name="Path 46" d="M173,94l.1.1Z" transform="translate(391.04 2146.89)" fill="#d5d5d5"/>
    <path id="Path_47" data-name="Path 47" d="M205,97l.1.1Z" transform="translate(362.083 2144.176)" fill="#cfcfcf"/>
    <path id="Path_48" data-name="Path 48" d="M93,99l.1.1Z" transform="translate(463.434 2142.365)" fill="#d5d5d5"/>
    <path id="Path_49" data-name="Path 49" d="M92,100l.1.1L92,100m11.522,0,.1.1Z" transform="translate(464.045 2141.461)" fill="#cfcfcf"/>
    <path id="Path_50" data-name="Path 50" d="M91,102l.1.1Z" transform="translate(465.243 2139.651)" fill="#d5d5d5"/>
    <path id="Path_51" data-name="Path 51" d="M209,103l.1.1Z" transform="translate(358.463 2138.746)" fill="#cfcfcf"/>
    <path id="Path_52" data-name="Path 52" d="M89,105l.1.1Z" transform="translate(467.053 2136.936)" fill="#d5d5d5"/>
    <path id="Path_53" data-name="Path 53" d="M211,106l.1.1Z" transform="translate(356.654 2136.031)" fill="#cfcfcf"/>
    <path id="Path_54" data-name="Path 54" d="M87,108l.1.1Z" transform="translate(468.863 2134.221)" fill="#d5d5d5"/>
    <path id="Path_55" data-name="Path 55" d="M183,109l.1.1Z" transform="translate(381.991 2133.316)" fill="#cfcfcf"/>
    <path id="Path_56" data-name="Path 56" d="M85,111l.1.1Z" transform="translate(470.673 2131.507)" fill="#d5d5d5"/>
    <path id="Path_57" data-name="Path 57" d="M119.314,112l.1.1-.1-.1m-7.314.3.1.1-.1-.1m7.514,0,.1.1-.1-.1m.2.3.1.1Z" transform="translate(446.043 2130.588)" fill="#cfcfcf"/>
    <path id="Path_58" data-name="Path 58" d="M221,121l.1.1Z" transform="translate(347.604 2122.458)" fill="#dbdbdb"/>
    <path id="Path_59" data-name="Path 59" d="M192,122l.1.1Z" transform="translate(373.847 2121.552)" fill="#d5d5d5"/>
    <path id="Path_60" data-name="Path 60" d="M224,125l.1.1Z" transform="translate(344.89 2118.838)" fill="#cfcfcf"/>
    <path id="Path_61" data-name="Path 61" d="M74,127l.1.1Z" transform="translate(480.627 2117.028)" fill="#d5d5d5"/>
    <path id="Path_62" data-name="Path 62" d="M73,128l.1.1L73,128m15.329,0,.1.1Z" transform="translate(481.141 2116.123)" fill="#cfcfcf"/>
    <path id="Path_63" data-name="Path 63" d="M72,130l.1.1Z" transform="translate(482.437 2114.313)" fill="#d5d5d5"/>
    <path id="Path_64" data-name="Path 64" d="M228,131l.1.1Z" transform="translate(341.27 2113.408)" fill="#cfcfcf"/>
    <path id="Path_65" data-name="Path 65" d="M70,133l.1.1L70,133m12.924,0,.1.1Z" transform="translate(483.928 2111.599)" fill="#d5d5d5"/>
    <path id="Path_66" data-name="Path 66" d="M101,134l.1.1-.1-.1m12.924,0,.1.1Z" transform="translate(455.854 2110.694)" fill="#cfcfcf"/>
    <path id="Path_67" data-name="Path 67" d="M66.2,136l.1.1-.1-.1m-.2.3.1.1-.1-.1m3.807,0,.1.1Z" transform="translate(487.782 2108.876)" fill="#d5d5d5"/>
    <path id="Path_68" data-name="Path 68" d="M106,141l.1.1-.1-.1m8.716,0,.1.1Z" transform="translate(451.448 2104.359)" fill="#cfcfcf"/>
    <path id="Path_69" data-name="Path 69" d="M192,143l.1.1Z" transform="translate(373.847 2102.549)" fill="#d5d5d5"/>
    <path id="Path_70" data-name="Path 70" d="M108,144l.1.1Z" transform="translate(449.86 2101.644)" fill="#cfcfcf"/>
    <path id="Path_71" data-name="Path 71" d="M111,149l.1.1Z" transform="translate(447.145 2097.12)" fill="#d5d5d5"/>
    <path id="Path_72" data-name="Path 72" d="M240,149l.1.1Z" transform="translate(330.411 2097.12)" fill="#dbdbdb"/>
    <path id="Path_73" data-name="Path 73" d="M113,151l.1.1-.1-.1m7.314,0,.1.1Z" transform="translate(445.149 2095.31)" fill="#cfcfcf"/>
    <path id="Path_74" data-name="Path 74" d="M185,153l.1.1Z" transform="translate(380.181 2093.5)" fill="#d5d5d5"/>
    <path id="Path_75" data-name="Path 75" d="M127.824,153l.1.1-.1-.1M115,153.1l.1.1Z" transform="translate(443.178 2093.498)" fill="#cfcfcf"/>
    <path id="Path_76" data-name="Path 76" d="M55,155l.1.1Z" transform="translate(497.82 2091.69)" fill="#d5d5d5"/>
    <path id="Path_78" data-name="Path 78" d="M54,156l.1.1L54,156m3.206,0,.1.1-.1-.1m12.724,0,.1.1-.1-.1m3.206,0,.1.1Z" transform="translate(498.238 2090.785)" fill="#cfcfcf"/>
    <path id="Path_79" data-name="Path 79" d="M53,158l.1.1L53,158m3.507,0,.1.1-.1-.1m3.006.1.1.1Z" transform="translate(499.486 2088.973)" fill="#d5d5d5"/>
    <path id="Path_80" data-name="Path 80" d="M247,159l.1.1Z" transform="translate(324.077 2088.071)" fill="#cfcfcf"/>
    <path id="Path_81" data-name="Path 81" d="M51,161l.1.1Z" transform="translate(501.44 2086.261)" fill="#d5d5d5"/>
    <path id="Path_82" data-name="Path 82" d="M93.905,161l.1.1-.1-.1m5.911,0,.1.1-.1-.1m7.013.1.1.1-.1-.1M91,161.2l.1.1Z" transform="translate(464.822 2086.255)" fill="#cfcfcf"/>
    <path id="Path_83" data-name="Path 83" d="M61.924,163l.1.1-.1-.1M49,163.1l.1.1Z" transform="translate(502.946 2084.448)" fill="#d5d5d5"/>
    <path id="Path_84" data-name="Path 84" d="M95.905,164l.1.1-.1-.1m9.919.1.1.1-.1-.1M93,164.2l.1.1-.1-.1m11.321,0,.1.1Z" transform="translate(463.102 2083.54)" fill="#cfcfcf"/>
    <path id="Path_85" data-name="Path 85" d="M47,167l.1.1L47,167m4.809.1.1.1Z" transform="translate(504.956 2080.828)" fill="#d5d5d5"/>
    <path id="Path_86" data-name="Path 86" d="M223,168l.1.1Z" transform="translate(345.795 2079.926)" fill="#cfcfcf"/>
    <path id="Path_87" data-name="Path 87" d="M125,169l.1.1Z" transform="translate(434.476 2079.021)" fill="#d5d5d5"/>
    <path id="Path_88" data-name="Path 88" d="M74,171l.1.1L74,171m5.31,0,.1.1-.1-.1m4.508,0,.1.1-.1-.1m5.31,0,.1.1-.1-.1m-12.724.2.1.1Z" transform="translate(480.242 2077.206)" fill="#cfcfcf"/>
    <path id="Path_89" data-name="Path 89" d="M171,173l.1.1Z" transform="translate(392.85 2075.402)" fill="#d5d5d5"/>
    <path id="Path_90" data-name="Path 90" d="M102.905,174l.1.1-.1-.1m9.818,0,.1.1-.1-.1M100,174.2l.1.1-.1-.1m9.919,0,.1.1Z" transform="translate(456.765 2074.491)" fill="#cfcfcf"/>
    <path id="Path_91" data-name="Path 91" d="M259,177l.1.1Z" transform="translate(313.218 2071.782)" fill="#dbdbdb"/>
    <path id="Path_92" data-name="Path 92" d="M102,178l.1.1-.1-.1m12.824,0,.1.1-.1-.1m-9.818.1.1.1Z" transform="translate(454.951 2070.874)" fill="#d5d5d5"/>
    <path id="Path_93" data-name="Path 93" d="M134,181l.1.1-.1-.1m3.106,0,.1.1-.1-.1m9.718,0,.1.1Z" transform="translate(425.971 2068.162)" fill="#cfcfcf"/>
    <path id="Path_94" data-name="Path 94" d="M36,183l.1.1Z" transform="translate(515.014 2066.352)" fill="#d5d5d5"/>
    <path id="Path_95" data-name="Path 95" d="M105,183l.1.1Z" transform="translate(452.575 2066.352)" fill="#cfcfcf"/>
    <path id="Path_96" data-name="Path 96" d="M164,183l.1.1Z" transform="translate(399.185 2066.352)" fill="#d5d5d5"/>
    <path id="Path_97" data-name="Path 97" d="M35,184l.1.1L35,184m10.119,0,.1.1-.1-.1m12.824,0,.1.1Z" transform="translate(515.334 2065.448)" fill="#cfcfcf"/>
    <path id="Path_98" data-name="Path 98" d="M34,186l.1.1Z" transform="translate(516.824 2063.638)" fill="#d5d5d5"/>
    <path id="Path_99" data-name="Path 99" d="M107,186l.1.1-.1-.1m8.516,0,.1.1-.1-.1m7.414.1.1.1Z" transform="translate(450.325 2063.635)" fill="#cfcfcf"/>
    <path id="Path_100" data-name="Path 100" d="M39.715,188l.1.1-.1-.1M32,188.1l.1.1-.1-.1m10.72,0,.1.1Z" transform="translate(518.397 2061.825)" fill="#d5d5d5"/>
    <path id="Path_101" data-name="Path 101" d="M153.724,190l.1.1-.1-.1M141,190.1l.1.1-.1-.1m1.7,0,.1.1Z" transform="translate(419.635 2060.015)" fill="#cfcfcf"/>
    <path id="Path_102" data-name="Path 102" d="M30,192l.1.1Z" transform="translate(520.443 2058.208)" fill="#d5d5d5"/>
    <path id="Path_103" data-name="Path 103" d="M112,193l.1.1Z" transform="translate(446.24 2057.303)" fill="#cfcfcf"/>
    <path id="Path_104" data-name="Path 104" d="M157,193l.1.1Z" transform="translate(405.519 2057.303)" fill="#d5d5d5"/>
    <path id="Path_105" data-name="Path 105" d="M152.718,193l.1.1-.1-.1m-9.718.1.1.1Z" transform="translate(417.919 2057.3)" fill="#cfcfcf"/>
    <path id="Path_106" data-name="Path 106" d="M28,195l.1.1Z" transform="translate(522.253 2055.493)" fill="#d5d5d5"/>
    <path id="Path_107" data-name="Path 107" d="M114,196l.1.1-.1-.1m7.113,0,.1.1-.1-.1m5.711,0,.1.1Z" transform="translate(444.084 2054.588)" fill="#cfcfcf"/>
    <path id="Path_108" data-name="Path 108" d="M116,198l.1.1Z" transform="translate(442.621 2052.779)" fill="#d5d5d5"/>
    <path id="Path_109" data-name="Path 109" d="M55,199l.1.1Z" transform="translate(497.82 2051.874)" fill="#cfcfcf"/>
    <path id="Path_110" data-name="Path 110" d="M146,199l.1.1Z" transform="translate(415.473 2051.874)" fill="#d5d5d5"/>
    <path id="Path_111" data-name="Path 111" d="M131.524,199l.1.1-.1-.1m-9.618.2.1.1-.1-.1m.3,0,.1.1-.1-.1m9.518.1.1.1-.1-.1M119,199.4l.1.1Z" transform="translate(439.559 2051.862)" fill="#cfcfcf"/>
    <path id="Path_112" data-name="Path 112" d="M150,203l.1.1Z" transform="translate(411.853 2048.254)" fill="#d5d5d5"/>
    <path id="Path_113" data-name="Path 113" d="M278,205l.1.1Z" transform="translate(296.024 2046.444)" fill="#dbdbdb"/>
    <path id="Path_114" data-name="Path 114" d="M121,206l.1.1-.1-.1m5.711,0,.1.1Z" transform="translate(437.951 2045.539)" fill="#cfcfcf"/>
    <path id="Path_115" data-name="Path 115" d="M135.624,206l.1.1-.1-.1M123,206.2l.1.1Z" transform="translate(435.939 2045.533)" fill="#d5d5d5"/>
    <path id="Path_116" data-name="Path 116" d="M281,209l.1.1Z" transform="translate(293.31 2042.824)" fill="#cfcfcf"/>
    <path id="Path_117" data-name="Path 117" d="M17,211l.1.1Z" transform="translate(532.207 2041.015)" fill="#d5d5d5"/>
    <path id="Path_118" data-name="Path 118" d="M16,212l.1.1L16,212m26.75,0,.1.1-.1-.1m-15.73.1.1.1Z" transform="translate(532.431 2040.107)" fill="#cfcfcf"/>
    <path id="Path_119" data-name="Path 119" d="M15,214l.1.1Z" transform="translate(534.017 2038.3)" fill="#d5d5d5"/>
    <path id="Path_120" data-name="Path 120" d="M143.73,215l.1.1-.1-.1m-15.73.1.1.1-.1-.1m4.308,0,.1.1Z" transform="translate(431.31 2037.392)" fill="#cfcfcf"/>
    <path id="Path_121" data-name="Path 121" d="M13,217l.1.1L13,217m11.722.1.1.1Z" transform="translate(535.578 2035.582)" fill="#d5d5d5"/>
    <path id="Path_122" data-name="Path 122" d="M287,218l.1.1Z" transform="translate(287.88 2034.68)" fill="#cfcfcf"/>
    <path id="Path_123" data-name="Path 123" d="M11,220l.1.1Z" transform="translate(537.637 2032.87)" fill="#d5d5d5"/>
    <path id="Path_124" data-name="Path 124" d="M259,221l.1.1Z" transform="translate(313.218 2031.965)" fill="#cfcfcf"/>
    <path id="Path_125" data-name="Path 125" d="M9,223l.1.1Z" transform="translate(539.446 2030.156)" fill="#d5d5d5"/>
    <path id="Path_126" data-name="Path 126" d="M133,223l.1.1-.1-.1m12.824.1.1.1-.1-.1m-9.418.2.1.1-.1-.1m.7.8.1.1Z" transform="translate(426.877 2030.12)" fill="#cfcfcf"/>
    <path id="Path_127" data-name="Path 127" d="M15,237l.1.1L15,237m26.951,0,.1.1-.1-.1m-26.85.1.1.1-.1-.1m26.75,0,.1.1-.1-.1m-26.65.1.1.1-.1-.1m26.55,0,.1.1-.1-.1m-26.45.1.1.1-.1-.1m10.42,0,.1.1Z" transform="translate(533.331 2017.477)" fill="#d5d5d5"/>
    <path id="Path_128" data-name="Path 128" d="M179,240l.1.1Z" transform="translate(385.611 2014.772)" fill="#dbdbdb"/>
    <path id="Path_129" data-name="Path 129" d="M45.249,240l.1.1-.1-.1M19,240.1l.1.1-.1-.1m26.149,0,.1.1-.1-.1m-26.049.1.1.1Z" transform="translate(529.728 2014.765)" fill="#d5d5d5"/>
    <path id="Path_130" data-name="Path 130" d="M120,242l.1.1-.1-.1m6.111,0,.1.1Z" transform="translate(438.845 2012.962)" fill="#cfcfcf"/>
    <path id="Path_131" data-name="Path 131" d="M46.849,242l.1.1-.1-.1M21,242.1l.1.1-.1-.1m25.748,0,.1.1-.1-.1m-25.648.1.1.1-.1-.1m25.548,0,.1.1-.1-.1m-25.448.1.1.1-.1-.1m25.348,0,.1.1Z" transform="translate(527.928 2012.952)" fill="#d5d5d5"/>
    <path id="Path_132" data-name="Path 132" d="M116,247l.1.1Z" transform="translate(442.621 2008.438)" fill="#cfcfcf"/>
    <path id="Path_133" data-name="Path 133" d="M186,248l.1.1Z" transform="translate(379.276 2007.533)" fill="#dbdbdb"/>
    <path id="Path_135" data-name="Path 135" d="M1.328-6.666V-11.3H3.335a2.607,2.607,0,0,1,1.073.2,1.572,1.572,0,0,1,.7.58,1.618,1.618,0,0,1,.245.9,1.606,1.606,0,0,1-.245.894,1.572,1.572,0,0,1-.7.58,2.607,2.607,0,0,1-1.073.2H1.924L2.4-8.428v1.762ZM2.4-8.309l-.477-.51H3.276a1.11,1.11,0,0,0,.742-.212.738.738,0,0,0,.245-.59.746.746,0,0,0-.245-.6,1.11,1.11,0,0,0-.742-.212H1.924l.477-.51Zm3.71,1.643V-11.3H8.118a2.607,2.607,0,0,1,1.073.2,1.572,1.572,0,0,1,.7.58,1.618,1.618,0,0,1,.245.9,1.59,1.59,0,0,1-.245.891,1.559,1.559,0,0,1-.7.573,2.645,2.645,0,0,1-1.073.2H6.707l.477-.47v1.762Zm2.948,0L7.9-8.349H9.046l1.173,1.683ZM7.184-8.309l-.477-.5H8.059A1.1,1.1,0,0,0,8.8-9.028a.748.748,0,0,0,.245-.593.746.746,0,0,0-.245-.6,1.11,1.11,0,0,0-.742-.212H6.707l.477-.51ZM13.22-6.593a2.829,2.829,0,0,1-1-.176,2.364,2.364,0,0,1-.808-.5,2.209,2.209,0,0,1-.523-.765,2.551,2.551,0,0,1-.189-.951,2.357,2.357,0,0,1,.189-.951,2.343,2.343,0,0,1,.53-.762,2.387,2.387,0,0,1,.8-.507,2.663,2.663,0,0,1,1-.172,2.7,2.7,0,0,1,1.017.172,2.421,2.421,0,0,1,.8.5,2.307,2.307,0,0,1,.53.759,2.3,2.3,0,0,1,.182.957,2.327,2.327,0,0,1-.182.957,2.253,2.253,0,0,1-.53.762,2.449,2.449,0,0,1-.8.5A2.7,2.7,0,0,1,13.22-6.593Zm0-.9a1.65,1.65,0,0,0,.583-.113,1.331,1.331,0,0,0,.46-.3,1.417,1.417,0,0,0,.3-.47,1.693,1.693,0,0,0,.116-.6,1.693,1.693,0,0,0-.116-.6,1.417,1.417,0,0,0-.3-.47,1.372,1.372,0,0,0-.46-.308,1.514,1.514,0,0,0-.583-.109,1.616,1.616,0,0,0-.57.113,1.331,1.331,0,0,0-.46.3,1.425,1.425,0,0,0-.3.467,1.683,1.683,0,0,0-.116.606,1.7,1.7,0,0,0,.116.6,1.41,1.41,0,0,0,.3.474,1.38,1.38,0,0,0,.457.308A1.472,1.472,0,0,0,13.22-7.494Zm4.591.828-2-4.637h1.159L18.718-7.2h-.682L19.811-11.3h1.067L18.871-6.666Zm3.452,0V-11.3h1.073v4.637Zm2.173,0V-11.3h2.107a2.94,2.94,0,0,1,1.332.288,2.2,2.2,0,0,1,.9.8,2.216,2.216,0,0,1,.318,1.226,2.219,2.219,0,0,1-.318,1.222,2.192,2.192,0,0,1-.9.808,2.94,2.94,0,0,1-1.332.288Zm1.073-.881h.98a1.658,1.658,0,0,0,.8-.172,1.3,1.3,0,0,0,.53-.5,1.536,1.536,0,0,0,.2-.762,1.53,1.53,0,0,0-.2-.765,1.3,1.3,0,0,0-.53-.5,1.658,1.658,0,0,0-.8-.172l-.98-.007Zm5.379-1.881,2.239-.007v.828L29.894-8.6Zm.073,1.9H32.5l-.007.861H28.907l.007-4.637h3.5l-.013.861H29.974Zm3.392.861V-11.3h2.107a2.94,2.94,0,0,1,1.332.288,2.2,2.2,0,0,1,.9.8,2.216,2.216,0,0,1,.318,1.226,2.219,2.219,0,0,1-.318,1.222,2.192,2.192,0,0,1-.9.808,2.94,2.94,0,0,1-1.332.288Zm1.073-.881h.98a1.658,1.658,0,0,0,.8-.172,1.3,1.3,0,0,0,.53-.5,1.536,1.536,0,0,0,.2-.762,1.53,1.53,0,0,0-.2-.765,1.3,1.3,0,0,0-.53-.5,1.658,1.658,0,0,0-.8-.172l-.98-.007Zm6.274.881V-11.3h2.266a2.174,2.174,0,0,1,1.315.331,1.042,1.042,0,0,1,.441.874,1.114,1.114,0,0,1-.179.633,1.171,1.171,0,0,1-.49.414,1.67,1.67,0,0,1-.715.146l.126-.272a1.981,1.981,0,0,1,.775.142,1.165,1.165,0,0,1,.527.421,1.187,1.187,0,0,1,.189.682,1.078,1.078,0,0,1-.47.931,2.381,2.381,0,0,1-1.385.335Zm1.067-.808h1.252a1.2,1.2,0,0,0,.633-.136.475.475,0,0,0,.215-.434.485.485,0,0,0-.215-.434,1.152,1.152,0,0,0-.633-.142H41.687V-9.4h1.146a1.1,1.1,0,0,0,.6-.136.46.46,0,0,0,.209-.414.454.454,0,0,0-.209-.407,1.1,1.1,0,0,0-.6-.136H41.766Zm5.055.808V-8.561l.245.649L45.026-11.3h1.139l1.563,2.6h-.656l1.57-2.6H49.7l-2.04,3.392.238-.649v1.895Z" transform="translate(536.962 2231)" fill="#0af"/>
    <path id="Path_134" data-name="Path 134" d="M1.755-6.675l-1.9-4.637h1.1l1.66,4.107H1.969l1.685-4.107H4.666L2.761-6.675ZM7.081-6.6a1.936,1.936,0,0,1-1.465-.55,2.177,2.177,0,0,1-.528-1.57v-2.6H6.106v2.557a1.427,1.427,0,0,0,.258.954.915.915,0,0,0,.723.291A.915.915,0,0,0,7.81-7.8a1.427,1.427,0,0,0,.258-.954v-2.557H9.074v2.6a2.177,2.177,0,0,1-.528,1.57A1.936,1.936,0,0,1,7.081-6.6Zm3.006-.079-.006-4.637h1.012L11.1-7.55h2.2l.006.874Zm4.7-1.06-.057-1.239,2.106-2.339h1.132l-1.9,2.153-.566.636Zm-.912,1.06v-4.637H14.89v4.637Zm3.012,0L15.324-8.7l.666-.762,2.088,2.782Zm4.867.079a3.421,3.421,0,0,1-1.012-.149,2.319,2.319,0,0,1-.78-.388l.346-.808a2.477,2.477,0,0,0,.67.348,2.347,2.347,0,0,0,.783.136,1.553,1.553,0,0,0,.487-.063.567.567,0,0,0,.274-.176.408.408,0,0,0,.088-.258.356.356,0,0,0-.138-.295,1.111,1.111,0,0,0-.365-.179q-.226-.07-.5-.132a5.644,5.644,0,0,1-.547-.156,2.259,2.259,0,0,1-.5-.238,1.143,1.143,0,0,1-.368-.384,1.181,1.181,0,0,1-.141-.609,1.344,1.344,0,0,1,.2-.725,1.416,1.416,0,0,1,.616-.523,2.41,2.41,0,0,1,1.034-.2,3.293,3.293,0,0,1,.817.1,2.291,2.291,0,0,1,.711.308l-.314.815a2.6,2.6,0,0,0-.616-.275,2.159,2.159,0,0,0-.6-.089,1.361,1.361,0,0,0-.484.073.571.571,0,0,0-.27.189.454.454,0,0,0-.082.268.349.349,0,0,0,.138.288,1.068,1.068,0,0,0,.365.176q.226.066.5.132t.547.152a2.062,2.062,0,0,1,.5.232,1.143,1.143,0,0,1,.368.384,1.166,1.166,0,0,1,.141.6,1.3,1.3,0,0,1-.207.715,1.467,1.467,0,0,1-.619.523A2.392,2.392,0,0,1,21.756-6.6Zm4.672,0a2.515,2.515,0,0,1-.946-.176,2.21,2.21,0,0,1-.758-.5,2.328,2.328,0,0,1-.5-.762,2.509,2.509,0,0,1-.179-.961,2.509,2.509,0,0,1,.179-.961,2.3,2.3,0,0,1,.5-.762,2.251,2.251,0,0,1,.758-.5,2.508,2.508,0,0,1,.949-.176,2.486,2.486,0,0,1,1.034.209,2.028,2.028,0,0,1,.777.613l-.654.636a1.542,1.542,0,0,0-.5-.407,1.351,1.351,0,0,0-.6-.136,1.474,1.474,0,0,0-.566.106,1.278,1.278,0,0,0-.446.3,1.4,1.4,0,0,0-.292.47,1.677,1.677,0,0,0-.1.6,1.677,1.677,0,0,0,.1.6,1.4,1.4,0,0,0,.292.47,1.278,1.278,0,0,0,.446.3,1.474,1.474,0,0,0,.566.106,1.351,1.351,0,0,0,.6-.136,1.511,1.511,0,0,0,.5-.414l.654.636a2.058,2.058,0,0,1-.777.616A2.468,2.468,0,0,1,26.428-6.6Zm2.5-.079v-4.637h1.905a2.365,2.365,0,0,1,1.019.2,1.514,1.514,0,0,1,.66.58,1.684,1.684,0,0,1,.233.9,1.654,1.654,0,0,1-.233.891,1.5,1.5,0,0,1-.66.573,2.4,2.4,0,0,1-1.019.2H29.5l.453-.47v1.762Zm2.8,0-1.1-1.683h1.088l1.113,1.683ZM29.949-8.318l-.453-.5h1.283a1.006,1.006,0,0,0,.7-.215.768.768,0,0,0,.233-.593.766.766,0,0,0-.233-.6,1.017,1.017,0,0,0-.7-.212H29.5l.453-.51Zm3.6,1.643v-4.637h1.019v4.637Zm2.062,0v-4.637h1.905a2.365,2.365,0,0,1,1.019.2,1.514,1.514,0,0,1,.66.58,1.684,1.684,0,0,1,.233.9,1.671,1.671,0,0,1-.233.894,1.514,1.514,0,0,1-.66.58,2.365,2.365,0,0,1-1.019.2H36.18l.453-.484v1.762Zm1.019-1.643-.453-.51h1.283a1.017,1.017,0,0,0,.7-.212.757.757,0,0,0,.233-.59.766.766,0,0,0-.233-.6,1.017,1.017,0,0,0-.7-.212H36.18l.453-.51Zm4.32,1.643-.006-3.763H39.538v-.874h3.829l.006.874H41.959l.006,3.763Zm2.968,0v-4.637h1.019v4.637Zm2.062,0v-4.637h.843l2.6,3.339-.4.007-.006-3.346h1.006v4.637h-.836l-2.6-3.339.409-.007v3.346Zm7.206.079a2.549,2.549,0,0,1-.959-.176,2.243,2.243,0,0,1-.761-.5,2.3,2.3,0,0,1-.5-.762,2.509,2.509,0,0,1-.179-.961,2.509,2.509,0,0,1,.179-.961,2.279,2.279,0,0,1,.506-.762,2.269,2.269,0,0,1,.767-.5,2.591,2.591,0,0,1,.968-.176,2.6,2.6,0,0,1,1.053.205,2.093,2.093,0,0,1,.789.6l-.654.636a1.6,1.6,0,0,0-.522-.394,1.466,1.466,0,0,0-.616-.129,1.557,1.557,0,0,0-.585.106,1.3,1.3,0,0,0-.456.3,1.376,1.376,0,0,0-.3.47,1.677,1.677,0,0,0-.1.6,1.658,1.658,0,0,0,.1.6,1.412,1.412,0,0,0,.3.474,1.282,1.282,0,0,0,.453.308,1.515,1.515,0,0,0,.575.106,1.728,1.728,0,0,0,.588-.1,1.68,1.68,0,0,0,.556-.348l.578.775a2.6,2.6,0,0,1-.833.437A3.082,3.082,0,0,1,53.188-6.6Zm.849-.729V-9.067h.931v1.881Zm3.653.649v-4.637h2a2.672,2.672,0,0,1,1.264.288,2.13,2.13,0,0,1,.855.8,2.308,2.308,0,0,1,.3,1.226,2.312,2.312,0,0,1-.3,1.222,2.123,2.123,0,0,1-.855.808,2.672,2.672,0,0,1-1.264.288Zm1.019-.881h.931a1.507,1.507,0,0,0,.764-.172,1.259,1.259,0,0,0,.5-.5,1.6,1.6,0,0,0,.185-.762,1.6,1.6,0,0,0-.185-.765,1.265,1.265,0,0,0-.5-.5,1.507,1.507,0,0,0-.764-.172l-.931-.007Zm5.106-1.881,2.125-.007v.828l-2.119.007Zm.069,1.9h2.408l-.006.861h-3.4l.006-4.637h3.32l-.013.861H63.9Zm3.226.861L67.1-11.313h1.012l.006,3.763h2.2l.006.874Zm4.722-2.763,2.125-.007v.828l-2.119.007Zm.069,1.9h2.408l-.006.861H70.9l.006-4.637h3.32l-.013.861h-2.3Zm5.345.941a2.549,2.549,0,0,1-.959-.176,2.243,2.243,0,0,1-.761-.5,2.3,2.3,0,0,1-.5-.762,2.509,2.509,0,0,1-.179-.961,2.509,2.509,0,0,1,.179-.961,2.279,2.279,0,0,1,.506-.762,2.269,2.269,0,0,1,.767-.5,2.591,2.591,0,0,1,.968-.176,2.6,2.6,0,0,1,1.053.205,2.093,2.093,0,0,1,.789.6l-.654.636a1.6,1.6,0,0,0-.522-.394,1.466,1.466,0,0,0-.616-.129,1.557,1.557,0,0,0-.585.106,1.3,1.3,0,0,0-.456.3,1.376,1.376,0,0,0-.3.47,1.678,1.678,0,0,0-.1.6,1.658,1.658,0,0,0,.1.6,1.412,1.412,0,0,0,.3.474,1.282,1.282,0,0,0,.453.308,1.515,1.515,0,0,0,.575.106,1.728,1.728,0,0,0,.588-.1,1.68,1.68,0,0,0,.556-.348l.578.775a2.6,2.6,0,0,1-.833.437A3.082,3.082,0,0,1,77.245-6.6Zm.849-.729V-9.067h.931v1.881Zm1.3.649,1.962-4.637h1.006l1.968,4.637H83.256l-1.61-4.094h.4L80.433-6.675Zm.981-.994.27-.815H82.9l.277.815Zm5.112.994-.006-3.763H84.067v-.874H87.9l.006.874H86.488l.006,3.763Zm2.968,0v-4.637h1.019v4.637Zm4.188.073a2.563,2.563,0,0,1-.953-.176,2.229,2.229,0,0,1-.767-.5,2.217,2.217,0,0,1-.5-.765,2.67,2.67,0,0,1-.179-.951,2.467,2.467,0,0,1,.179-.951,2.349,2.349,0,0,1,.5-.762,2.253,2.253,0,0,1,.764-.507,2.413,2.413,0,0,1,.949-.172,2.442,2.442,0,0,1,.965.172,2.285,2.285,0,0,1,.761.5,2.312,2.312,0,0,1,.5.759,2.407,2.407,0,0,1,.173.957,2.437,2.437,0,0,1-.173.957,2.259,2.259,0,0,1-.5.762,2.31,2.31,0,0,1-.761.5A2.442,2.442,0,0,1,92.638-6.6Zm0-.9a1.5,1.5,0,0,0,.553-.113,1.261,1.261,0,0,0,.437-.3,1.427,1.427,0,0,0,.289-.47,1.773,1.773,0,0,0,.11-.6,1.773,1.773,0,0,0-.11-.6,1.427,1.427,0,0,0-.289-.47,1.3,1.3,0,0,0-.437-.308,1.373,1.373,0,0,0-.553-.109,1.466,1.466,0,0,0-.541.113,1.261,1.261,0,0,0-.437.3,1.435,1.435,0,0,0-.289.467,1.763,1.763,0,0,0-.11.606,1.784,1.784,0,0,0,.11.6,1.42,1.42,0,0,0,.289.474,1.308,1.308,0,0,0,.434.308A1.335,1.335,0,0,0,92.638-7.5Zm3.182.828v-4.637h.843l2.6,3.339-.4.007-.006-3.346h1.006v4.637H99.02l-2.6-3.339.409-.007v3.346Z" transform="translate(512 2279.495)" fill="#0af"/>
  </g>
</svg>
